<?xml version="1.0" encoding="UTF-8"?>
<svg version="1.1" xmlns="http://www.w3.org/2000/svg" width="502" height="497">
<path d="M0 0 C6.22158833 1.4931812 10.4876604 6.46527988 14 11.625 C19.13346392 20.56549589 19.28349377 31.97098111 19.25198364 42.04733276 C19.25432363 43.22328874 19.25432363 43.22328874 19.25671089 44.42300141 C19.26066639 47.02274331 19.25755253 49.62242574 19.25439453 52.22216797 C19.25575101 54.09724969 19.25753234 55.97233115 19.25970459 57.84741211 C19.26425014 62.92184275 19.26250104 67.99625298 19.2593255 73.07068396 C19.25678627 78.39332476 19.25914386 83.71596386 19.26071167 89.03860474 C19.26252912 97.97772534 19.26013852 106.91683768 19.25537109 115.85595703 C19.24993263 126.17205687 19.25168983 136.48813693 19.2571975 146.80423629 C19.2617447 155.6784033 19.26237121 164.55256438 19.25975883 173.42673218 C19.25820447 178.7193046 19.25797912 184.01186774 19.26129532 189.30443954 C19.26419727 194.28342864 19.26215581 199.26239241 19.25640106 204.24137878 C19.25508575 206.06218041 19.25544655 207.88298419 19.25766373 209.70378494 C19.294987 243.48551734 19.294987 243.48551734 9.69921875 253.4921875 C7.11486195 255.55710782 5.40690154 256.02931077 2.125 255.75 C-2.36439909 252.93107499 -3.31087123 249.9347132 -4.625 244.875 C-6.74681828 235.42550697 -7.36602401 225.89959805 -7.9296875 216.26171875 C-7.97429989 215.50210028 -8.01891228 214.7424818 -8.06487656 213.95984459 C-9.09199502 195.987368 -9.11184476 178.03889967 -9.0123291 160.04315186 C-8.99129332 155.81069077 -8.9826165 151.57820219 -8.97265625 147.34570312 C-8.95166283 139.14706523 -8.91786965 130.94855269 -8.875 122.75 C-10.45683326 130.52587759 -11.36645976 138.1975797 -11.91015625 146.109375 C-11.99373886 147.2568219 -12.07732147 148.4042688 -12.16343689 149.58648682 C-12.42703563 153.2239486 -12.68237117 156.86193539 -12.9375 160.5 C-13.11209253 162.92451795 -13.28721841 165.34899755 -13.46289062 167.7734375 C-14.36803289 180.22839458 -14.36803289 180.22839458 -15.18310547 192.68945312 C-15.22680771 193.39442932 -15.27050995 194.09940552 -15.3155365 194.82574463 C-15.42320117 196.59485737 -15.52525505 198.36430929 -15.62670898 200.13378906 C-15.875 202.75 -15.875 202.75 -16.875 205.75 C-16.97834668 208.04085137 -17.05828285 210.33278941 -17.125 212.625 C-17.51412772 220.53114838 -18.84977392 229.99886519 -24.8828125 235.62109375 C-26.875 236.75 -26.875 236.75 -29.4375 236.5625 C-31.875 235.75 -31.875 235.75 -34.875 233.75 C-41.97975865 219.40988051 -42.43712029 203.74433811 -42.9375 188.125 C-43.08726381 184.03625855 -43.24540412 179.94784639 -43.40234375 175.859375 C-43.44016968 174.84094513 -43.47799561 173.82251526 -43.51696777 172.77322388 C-43.88663396 162.96621464 -44.41744876 153.17137715 -45 143.375 C-45.04456329 142.6182196 -45.08912659 141.86143921 -45.13504028 141.08172607 C-45.3772041 136.97087249 -45.62361281 132.86030173 -45.875 128.75 C-47.11433932 131.22867863 -47.04894319 132.98084671 -47.12109375 135.75390625 C-47.15251465 136.79289063 -47.18393555 137.831875 -47.21630859 138.90234375 C-47.24805176 140.02769531 -47.27979492 141.15304687 -47.3125 142.3125 C-47.63124574 151.63808954 -48.06266653 160.94385725 -48.75 170.25 C-48.81630615 171.25619385 -48.8826123 172.2623877 -48.95092773 173.29907227 C-49.64971661 182.21776609 -50.7952223 191.63564653 -57.875 197.75 C-61.4375 198.4375 -61.4375 198.4375 -64.875 197.75 C-68.63298609 194.39828268 -69.88786985 190.55225478 -70.875 185.75 C-71.04902344 184.93015625 -71.22304687 184.1103125 -71.40234375 183.265625 C-74.85351782 165.02730364 -74.06302301 146.09822899 -74.06030273 127.60986328 C-74.06022129 124.70322473 -74.06720886 121.79674317 -74.08081055 118.89013672 C-74.22284939 88.08179354 -74.22284939 88.08179354 -71.875 72.75 C-71.7298999 71.73824707 -71.5847998 70.72649414 -71.43530273 69.68408203 C-70.29346552 62.2288646 -67.63378258 55.26888844 -62 50.125 C-58.22595293 48.46441929 -55.96000963 48.1664272 -51.875 48.75 C-42.68727431 53.61409007 -40.14713112 61.44415191 -36.875 70.75 C-36.4625 71.905 -36.05 73.06 -35.625 74.25 C-34.70708454 78.53360549 -34.49821991 82.73875141 -34.21875 87.10546875 C-33.85506706 90.96133448 -33.19820878 94.70807351 -32.4375 98.5 C-29.6678095 112.48146499 -28.55134036 126.5290541 -27.875 140.75 C-27.18581616 134.81019696 -26.79186942 128.94274774 -26.68579102 122.96557617 C-26.3618932 107.16482627 -24.54612972 91.58069384 -22.74316406 75.89501953 C-21.46764811 64.7188966 -20.46233348 53.60831898 -19.875 42.375 C-19.06185681 28.06367984 -16.87760042 13.09181368 -5.9375 2.75 C-2.875 0.75 -2.875 0.75 0 0 Z " fill="#1D1B1C" transform="translate(204.875,122.25)"/>
<path d="M0 0 C5.80730607 4.83942172 6.90641058 14.07516775 7.70849609 21.25195312 C7.86887186 23.09390827 8.01488036 24.93715628 8.1484375 26.78125 C8.22750336 27.80021362 8.30656921 28.81917725 8.38803101 29.86901855 C9.35208549 43.39392331 9.46248354 56.94680426 9.625 70.5 C9.66237879 73.18492113 9.70225702 75.86980327 9.7421875 78.5546875 C9.83672512 85.03636231 9.92215133 91.51810434 10 98 C12.91137278 89.5711518 15.644581 81.23540377 17.5 72.5 C17.80345337 71.1241272 17.80345337 71.1241272 18.11303711 69.72045898 C18.75142467 66.81558634 19.37757908 63.90833299 20 61 C23.37724753 45.24036892 26.90461864 29.67280483 31.625 14.25 C31.83125 13.56945557 32.0375 12.88891113 32.25 12.18774414 C33.22158725 9.08331785 34.17969055 6.73046418 36 4 C36.99 4 37.98 4 39 4 C39 3.34 39 2.68 39 2 C41.625 1.4375 41.625 1.4375 45 2 C52.57248789 10.15908906 53.36291252 18.97592931 53.375 29.625 C53.39949219 30.73746094 53.42398438 31.84992188 53.44921875 32.99609375 C53.47736056 41.05403122 51.90325017 47.51941408 49 55 C48.61714844 56.16015625 48.23429687 57.3203125 47.83984375 58.515625 C47.54207031 59.41796875 47.24429688 60.3203125 46.9375 61.25 C46.63714844 62.16265625 46.33679688 63.0753125 46.02734375 64.015625 C45.27976228 66.18730652 44.49011751 68.34464585 43.67578125 70.4921875 C41.38036766 76.56545435 39.34316837 82.7299222 37.25 88.875 C34.09258205 98.13490479 30.87701309 107.35058232 27.06933594 116.36865234 C25.17918684 120.97982373 24.44223646 125.08080189 24 130 C24.96099609 130.20302734 24.96099609 130.20302734 25.94140625 130.41015625 C33.42754553 132.27332355 37.89289336 135.20210034 42.10546875 141.70703125 C43.20327019 143.76372863 44.10469443 145.8465188 45 148 C45.72703125 149.67642578 45.72703125 149.67642578 46.46875 151.38671875 C49.89279719 159.45429341 52.35579127 167.36868477 54 176 C54.18030762 176.89976562 54.36061523 177.79953125 54.54638672 178.7265625 C56.53694034 190.32187199 56.37216136 201.99849157 56.37060547 213.73071289 C56.37498608 217.42575943 56.41142367 221.11961625 56.44921875 224.81445312 C56.59039622 254.22221623 56.59039622 254.22221623 49 265 C45.25173547 266.36300528 43.1832543 266.04659008 39.3125 265.0625 C34.95389437 262.34865121 34.38455568 259.77457322 33 255 C30.94506328 244.71377182 30.8371276 234.20076671 30.5625 223.75 C30.04326605 204.96075078 29.3981127 183.33989139 19 167 C19 166.34 19 165.68 19 165 C15.33992527 163.38526115 11.94465818 162.60645022 8 162 C8.07001221 163.11963135 8.14002441 164.2392627 8.2121582 165.39282227 C9.00819056 179.02357406 9.18621781 192.62897573 9.18530273 206.28100586 C9.18749489 209.92899155 9.20574878 213.57667652 9.22460938 217.22460938 C9.25201961 228.13969869 9.13252323 239.00018534 8.17578125 249.87890625 C8.0717524 251.14395241 8.0717524 251.14395241 7.96562195 252.43455505 C7.35803384 258.39703352 5.97822082 262.91187802 1.75 267.375 C-1.81003848 269.4786591 -3.92814636 269.59226962 -8 269 C-13.10245624 265.7400974 -14.22132189 259.39177033 -15.50546646 253.79828644 C-16.60729637 247.56365229 -16.7025327 241.15861668 -17.04589844 234.84179688 C-17.09032058 234.03039214 -17.13474273 233.21898741 -17.180511 232.38299465 C-18.2124228 213.05381677 -18.2957 193.74279724 -18.26865101 174.39082146 C-18.26345727 169.48275442 -18.26831721 164.57469344 -18.27142334 159.66662598 C-18.27501973 151.45465721 -18.27037401 143.2427249 -18.26074219 135.03076172 C-18.24980756 125.60039203 -18.25343693 116.17010855 -18.264395 106.73974085 C-18.27352334 98.54849346 -18.27472797 90.35727171 -18.26951766 82.16602087 C-18.26643567 77.31395906 -18.26588373 72.46193759 -18.27259064 67.60987854 C-18.33937086 11.53106799 -18.33937086 11.53106799 -12 2 C-8.14654566 -1.64515951 -4.98445149 -1.45002225 0 0 Z " fill="#1D1B1C" transform="translate(246,115)"/>
<path d="M0 0 C0 0.66 0 1.32 0 2 C0.66 2 1.32 2 2 2 C2 2.66 2 3.32 2 4 C2.66 4 3.32 4 4 4 C10.80298972 13.48246917 14.55144602 23.26467625 12.6875 34.9609375 C11.3444923 41.02845442 9.25656548 47.3543715 5.1875 52.125 C1.74991238 53.50003505 -0.47404883 52.98974068 -4 52 C-9.3318151 47.73454792 -10.862994 43.76752476 -11.625 37.1875 C-11.757008 35.79231199 -11.88437394 34.39664108 -12 33 C-14.64 32.67 -17.28 32.34 -20 32 C-22.52792143 34.95835129 -23.48171564 37.07020381 -23.875 40.9375 C-23.97554688 41.77152344 -24.07609375 42.60554688 -24.1796875 43.46484375 C-23.94549025 46.76906153 -23.0170856 48.38382274 -21 51 C-18.62449437 52.69759636 -18.62449437 52.69759636 -15.875 54 C-14.8953125 54.50789063 -13.915625 55.01578125 -12.90625 55.5390625 C-11.9471875 56.02117187 -10.988125 56.50328125 -10 57 C-1.40105261 61.32739235 7.34422895 66.60899208 11.29296875 75.8046875 C14.75356469 86.54974231 14.39463555 96.97924632 12.75 108 C12.64042969 108.83789062 12.53085937 109.67578125 12.41796875 110.5390625 C11.18283712 118.93795759 8.1181187 127.85253781 2 134 C-6.69404113 140.08445533 -15.25035064 143.4008 -26.0625 141.625 C-33.65851996 139.24131173 -40.40087779 132.93324916 -44.0625 126 C-49.68967636 112.70681526 -49.15790027 99.85565539 -44.58203125 86.375 C-42.64156117 82.2353305 -40.46309799 77.90966687 -35.9375 76.23828125 C-34.9784375 76.27501953 -34.9784375 76.27501953 -34 76.3125 C-33.360625 76.30863281 -32.72125 76.30476563 -32.0625 76.30078125 C-28.64305149 77.4600261 -27.16603537 79.13297031 -25 82 C-24.23225903 85.77518341 -24.46988027 89.57278803 -24.55078125 93.40625 C-24.51457507 97.75099147 -24.41365048 99.46639088 -21.65625 103.0234375 C-19.13048532 105.19234909 -19.13048532 105.19234909 -16 105.625 C-12.03666717 104.79930566 -10.55465474 103.06558569 -8 100 C-6.24479937 96.48959873 -7.21111518 92.74103971 -8 89 C-9.24409894 86.32749117 -10.31712448 84.33762773 -12 82 C-12.41121094 81.401875 -12.82242188 80.80375 -13.24609375 80.1875 C-16.68958098 75.66121651 -20.36965564 73.59265878 -25.484375 71.234375 C-29.41200311 69.30715376 -32.66989427 66.81520986 -36 64 C-36.70382812 63.42636719 -37.40765625 62.85273438 -38.1328125 62.26171875 C-44.8272733 56.29599077 -47.41102394 49.61219719 -48.33984375 40.76171875 C-48.72380775 27.93732101 -45.08098556 16.62147834 -38 6 C-37.34 6 -36.68 6 -36 6 C-35.814375 5.4225 -35.62875 4.845 -35.4375 4.25 C-32.74675266 0.03839548 -28.20049485 -1.54698308 -23.6875 -3.25 C-14.73921436 -5.0699903 -8.21905189 -3.91716516 0 0 Z " fill="#1D1B1C" transform="translate(372,183)"/>
<path d="M0 0 C0.88262512 0.00021149 1.76525024 0.00042297 2.67462158 0.00064087 C16.34123943 0.03329466 29.22298316 0.9382247 42.5 4.375 C43.98919482 4.7191335 45.47877579 5.06160053 46.96875 5.40234375 C65.88625421 9.96870993 83.92679786 18.28484458 100.5 28.375 C100.5 29.035 100.5 29.695 100.5 30.375 C101.19351562 30.60703125 101.88703125 30.8390625 102.6015625 31.078125 C106.09240564 32.6400656 108.90957091 34.75366724 111.875 37.125 C112.47787842 37.60453125 113.08075684 38.0840625 113.7019043 38.578125 C124.72323407 47.48035042 134.98476384 57.01119646 143.5 68.375 C143.94327637 68.95926758 144.38655273 69.54353516 144.84326172 70.14550781 C150.50610138 77.62269276 156.02000127 85.1153797 160.5 93.375 C161.11230469 94.48359375 161.72460938 95.5921875 162.35546875 96.734375 C176.74085467 123.59436784 182.67210957 152.99242137 182.6875 183.25 C182.69974609 184.50941406 182.71199219 185.76882812 182.72460938 187.06640625 C182.73787699 195.67266318 181.94796642 203.8955126 180.5 212.375 C180.37955322 213.11041016 180.25910645 213.84582031 180.13500977 214.60351562 C178.87264468 222.00515974 177.08574826 229.23154843 175 236.4375 C174.79850342 237.13979736 174.59700684 237.84209473 174.3894043 238.56567383 C173.47481915 241.62151172 172.46049642 244.45390209 171.03125 247.30859375 C169.79103758 249.79218239 168.95411767 251.96725643 168.140625 254.59375 C166.40148113 259.98735463 163.89217059 264.87452839 161.25 269.875 C160.79753906 270.76058594 160.34507812 271.64617187 159.87890625 272.55859375 C156.65575652 278.70695499 152.89155374 284.0135557 148.5 289.375 C147.53696964 290.6041184 146.5771069 291.83572821 145.62109375 293.0703125 C143.33688956 295.99552201 141.03599633 298.9071931 138.72900391 301.81445312 C137.68405537 303.14129283 136.65827051 304.48318893 135.63671875 305.828125 C132.13638759 310.27815841 132.13638759 310.27815841 128.625 310.8125 C127.92375 310.668125 127.2225 310.52375 126.5 310.375 C125.82421875 308.09375 125.82421875 308.09375 125.5 305.375 C126.58203125 303.59375 126.58203125 303.59375 128.3125 301.875 C131.59480337 298.40270303 134.60182772 294.79568502 137.5 291 C137.92804932 290.43949951 138.35609863 289.87899902 138.79711914 289.30151367 C142.50224494 284.41854342 146.09926002 279.47610997 149.5 274.375 C149.97695313 273.66988281 150.45390625 272.96476562 150.9453125 272.23828125 C160.5060732 257.27020507 166.27998794 240.5121048 170.5 223.375 C170.81710937 222.116875 171.13421875 220.85875 171.4609375 219.5625 C176.90223562 195.42684101 176.59285169 170.49259094 171.5 146.375 C171.273125 145.25996094 171.04625 144.14492187 170.8125 142.99609375 C165.07569389 116.43077002 153.45244224 93.4897492 136.5 72.375 C135.48099609 71.04855469 135.48099609 71.04855469 134.44140625 69.6953125 C127.22096867 60.36830862 119.34292952 52.5846255 109.5546875 45.96875 C108.87664062 45.4428125 108.19859375 44.916875 107.5 44.375 C107.5 43.715 107.5 43.055 107.5 42.375 C106.84 42.16875 106.18 41.9625 105.5 41.75 C102.91165561 40.56367549 101.25684843 39.48660263 99.0625 37.75 C93.29824452 33.2933261 86.91348668 29.80461658 80.5 26.375 C79.75210205 25.97369873 79.0042041 25.57239746 78.23364258 25.15893555 C71.98051491 21.91024274 65.6318943 19.49136402 58.9375 17.3125 C57.8868335 16.96815918 56.83616699 16.62381836 55.75366211 16.26904297 C19.49290139 4.58523531 -15.97366138 4.88195452 -52.5 15.375 C-53.23702148 15.58527832 -53.97404297 15.79555664 -54.73339844 16.01220703 C-64.93718826 18.98603882 -74.20527458 23.30577847 -83.5 28.375 C-84.1290625 28.71515137 -84.758125 29.05530273 -85.40625 29.40576172 C-95.46472227 34.91958571 -104.1561718 41.68498629 -112.91943359 49.05371094 C-118.0886918 53.375 -118.0886918 53.375 -120.5 53.375 C-120.5 54.035 -120.5 54.695 -120.5 55.375 C-121.16 55.375 -121.82 55.375 -122.5 55.375 C-122.76167969 55.97054687 -123.02335937 56.56609375 -123.29296875 57.1796875 C-124.57471136 59.51088279 -125.83095056 60.74333733 -127.8125 62.5 C-147.75044189 81.92950621 -163.34571865 111.36786244 -169.5 138.375 C-169.69174805 139.13425781 -169.88349609 139.89351562 -170.08105469 140.67578125 C-176.72881032 167.52707479 -176.12846728 199.59933429 -169.5 226.375 C-169.2510498 227.43436768 -169.2510498 227.43436768 -168.99707031 228.51513672 C-163.84096051 249.72105337 -152.79624064 270.59093835 -139.0078125 287.41015625 C-137.5 289.375 -137.5 289.375 -136.09375 291.8046875 C-133.70857572 295.65136563 -130.57198849 298.70554931 -127.4609375 301.97265625 C-125.59530529 304.25824153 -124.76212664 305.47288362 -124.5 308.375 C-124.83 309.035 -125.16 309.695 -125.5 310.375 C-127.5625 310.8125 -127.5625 310.8125 -130.5 310.375 C-135.07366447 306.85286999 -138.61461363 302.33786455 -141.5 297.375 C-141.5 296.715 -141.5 296.055 -141.5 295.375 C-142.16 295.375 -142.82 295.375 -143.5 295.375 C-145.11887457 293.3888949 -146.60005756 291.41041345 -148.0625 289.3125 C-148.50505127 288.6819873 -148.94760254 288.05147461 -149.40356445 287.40185547 C-157.57545286 275.61371346 -164.03448433 263.62816754 -169.5 250.375 C-170.00789063 249.24835938 -170.51578125 248.12171875 -171.0390625 246.9609375 C-172.7085013 242.86322409 -173.89629778 238.77839127 -175 234.5 C-175.21430664 233.67862549 -175.42861328 232.85725098 -175.64941406 232.01098633 C-177.7195022 223.87035692 -179.18207188 215.66548029 -180.5 207.375 C-180.75910156 206.03429443 -180.75910156 206.03429443 -181.0234375 204.66650391 C-181.58426192 200.79302297 -181.6809054 196.97926051 -181.703125 193.07421875 C-181.71167511 191.88225639 -181.71167511 191.88225639 -181.72039795 190.66621399 C-181.72981442 188.98443923 -181.73636855 187.30264629 -181.74023438 185.62084961 C-181.74982552 183.10820929 -181.78083157 180.59642915 -181.8125 178.08398438 C-181.91230095 162.85786766 -179.32578902 148.74877259 -175.44921875 134.05859375 C-174.88129108 131.85466045 -174.34991432 129.64006434 -173.89453125 127.41015625 C-169.70575846 107.3658945 -157.94267956 88.27655876 -145.5 72.375 C-144.45460256 70.9819586 -143.41248264 69.586446 -142.375 68.1875 C-141.41700229 66.91641365 -140.45865135 65.64559346 -139.5 64.375 C-138.88898438 63.55386719 -138.27796875 62.73273438 -137.6484375 61.88671875 C-137.02195313 61.05785156 -136.39546875 60.22898438 -135.75 59.375 C-135.17765625 58.611875 -134.6053125 57.84875 -134.015625 57.0625 C-133.51546875 56.505625 -133.0153125 55.94875 -132.5 55.375 C-131.84 55.375 -131.18 55.375 -130.5 55.375 C-130.5 54.715 -130.5 54.055 -130.5 53.375 C-129.84 53.375 -129.18 53.375 -128.5 53.375 C-128.5 52.715 -128.5 52.055 -128.5 51.375 C-126.84765625 49.9296875 -126.84765625 49.9296875 -124.5625 48.25 C-121.3589518 45.83990027 -118.36013144 43.36708278 -115.4375 40.625 C-102.30999528 28.86257376 -85.94365853 18.7486914 -69.14624023 13.27514648 C-66.67242626 12.43365261 -64.29388164 11.47887785 -61.88671875 10.46484375 C-56.44290124 8.27189403 -50.92925707 6.70641735 -45.25 5.25 C-44.31542969 4.99863281 -43.38085938 4.74726562 -42.41796875 4.48828125 C-28.30711629 0.82137945 -14.49762592 -0.0321022 0 0 Z " fill="#232223" transform="translate(256.5,65.625)"/>
<path d="M0 0 C7.56858164 2.34938291 12.47406123 7.62315783 16.359375 14.35546875 C19.3044736 20.6995339 19.66652655 26.22154371 18 33 C16.55614965 36.79364601 14.88382348 40.4061375 13 44 C12.34 44 11.68 44 11 44 C10.7525 44.61875 10.505 45.2375 10.25 45.875 C8.79371361 48.35068687 7.62187494 48.95125002 5 50 C5 50.66 5 51.32 5 52 C3.00715862 53.3440093 1.00580329 54.67541292 -1 56 C-3.64573501 58.22877725 -3.64573501 58.22877725 -6 61 C-6.46921875 61.48339844 -6.9384375 61.96679688 -7.421875 62.46484375 C-11.88455235 67.99304799 -11.37134015 73.80156457 -10.99145508 80.56518555 C-10.76925188 85.24942865 -10.83652255 88.22140193 -14 92 C-16.875 93.0625 -16.875 93.0625 -20 93 C-21.70196405 91.7120272 -23.36345179 90.37013339 -25 89 C-27.34272074 88.07175216 -29.69404515 87.32908265 -32.109375 86.61328125 C-34 86 -34 86 -35 85 C-35.47634441 81.59753994 -35.74035662 79.07522561 -33.73046875 76.15625 C-32.65643756 74.96462415 -31.56763213 73.78615724 -30.46484375 72.62109375 C-25.57054846 67.2047403 -25.86261289 59.18839343 -25.7890625 52.29296875 C-25.76098972 50.80402554 -25.73232523 49.3150934 -25.703125 47.82617188 C-25.66200255 45.50936247 -25.62505998 43.19275867 -25.59863281 40.87573242 C-25.46164433 29.79029346 -24.79951159 20.72865706 -18.625 11.1875 C-18.06039063 10.29417969 -17.49578125 9.40085938 -16.9140625 8.48046875 C-12.35211777 2.56856078 -7.52922698 -0.7405797 0 0 Z " fill="#EF6A37" transform="translate(329,130)"/>
<path d="M0 0 C10.33150456 8.35313135 18.11216457 18.53082475 25.76904297 29.28125 C26.82149081 30.75075274 27.89499237 32.20513824 28.97265625 33.65625 C39.74439941 48.37845023 53 72.34778863 53 91 C50.03 90.505 50.03 90.505 47 90 C46.67 90.66 46.34 91.32 46 92 C45.82984375 91.3922876 45.6596875 90.7845752 45.484375 90.15844727 C38.42620863 65.24602959 28.21181299 44.18581261 12 24 C11.3090625 23.10410156 10.618125 22.20820313 9.90625 21.28515625 C5.34353377 15.4097538 0.36909611 10.14538377 -5 5 C-4.34 4.67 -3.68 4.34 -3 4 C-2.01 4.33 -1.02 4.66 0 5 C-0.33 4.01 -0.66 3.02 -1 2 C-0.67 1.34 -0.34 0.68 0 0 Z " fill="#2A2A2A" transform="translate(381,114)"/>
<path d="M0 0 C-0.2784375 0.928125 -0.2784375 0.928125 -0.5625 1.875 C-1.23686176 4.04160178 -1.23686176 4.04160178 0 6 C-0.63421875 6.08636719 -1.2684375 6.17273438 -1.921875 6.26171875 C-16.35967173 8.43536494 -30.46877326 12.23248515 -44.2265625 17.08203125 C-47 18 -47 18 -49 18 C-48.46144476 14.12240224 -47.78165885 11.79246141 -45 9 C-42.12919876 7.68284969 -39.15453726 6.81598051 -36.125 5.9375 C-35.27381592 5.68073486 -34.42263184 5.42396973 -33.5456543 5.15942383 C-8.30682038 -2.33629323 -8.30682038 -2.33629323 0 0 Z " fill="#2A2A2A" transform="translate(236,68)"/>
<path d="M0 0 C0.85513687 -0.0033284 1.71027374 -0.0066568 2.59132385 -0.01008606 C4.40617333 -0.01515187 6.22103213 -0.01749449 8.03588867 -0.01733398 C10.7747402 -0.01949832 13.51317406 -0.03759556 16.25195312 -0.05664062 C25.48030381 -0.08538544 34.32565304 0.11701356 43.37890625 2.16796875 C43.37890625 2.49796875 43.37890625 2.82796875 43.37890625 3.16796875 C42.59515625 3.29171875 41.81140625 3.41546875 41.00390625 3.54296875 C38.23832803 3.95914868 38.23832803 3.95914868 36.37890625 6.16796875 C26.02326453 7.96178409 15.04057659 7.28576619 4.56640625 7.23046875 C2.89127739 7.22543931 1.21614706 7.22087898 -0.45898438 7.21679688 C-4.51305814 7.20591583 -8.56705906 7.18873246 -12.62109375 7.16796875 C-11.96109375 6.83796875 -11.30109375 6.50796875 -10.62109375 6.16796875 C-10.95109375 4.51796875 -11.28109375 2.86796875 -11.62109375 1.16796875 C-7.73840257 -0.12626164 -4.04721835 0.00548031 0 0 Z " fill="#1C1B1C" transform="translate(245.62109375,65.83203125)"/>
<path d="M0 0 C2.22711354 5.78250557 3.08337866 11.72556695 4.0625 17.8125 C4.23587891 18.85470703 4.40925781 19.89691406 4.58789062 20.97070312 C5.0805292 23.97749718 5.54356466 26.98752673 6 30 C6.14808105 30.87833496 6.29616211 31.75666992 6.44873047 32.66162109 C6.80859375 35.07421875 6.80859375 35.07421875 7 39 C5.63696289 40.74536133 5.63696289 40.74536133 4 42 C3.34 42 2.68 42 2 42 C-6.38381618 15.14625375 -6.38381618 15.14625375 -5 2 C-2 0 -2 0 0 0 Z " fill="#1E1D1E" transform="translate(81,262)"/>
<path d="M0 0 C0.33 0.66 0.66 1.32 1 2 C3.64 1.67 6.28 1.34 9 1 C7.61285223 5.16144331 4.62830018 6.88325887 1.25 9.4375 C0.00511435 10.39440899 -1.2396789 11.35143821 -2.484375 12.30859375 C-3.08314453 12.76347168 -3.68191406 13.21834961 -4.29882812 13.68701172 C-5.83556139 14.87308397 -7.33447744 16.10776373 -8.828125 17.34765625 C-11 19 -11 19 -13 19 C-13 19.66 -13 20.32 -13 21 C-13.66 21 -14.32 21 -15 21 C-15.268125 21.61875 -15.53625 22.2375 -15.8125 22.875 C-17 25 -17 25 -20 27 C-20.33 25.35 -20.66 23.7 -21 22 C-21.66 22 -22.32 22 -23 22 C-23.33 22.99 -23.66 23.98 -24 25 C-24.66 24.67 -25.32 24.34 -26 24 C-25.505 22.515 -25.505 22.515 -25 21 C-24.34 21 -23.68 21 -23 21 C-23 20.34 -23 19.68 -23 19 C-22.34 19 -21.68 19 -21 19 C-21 18.34 -21 17.68 -21 17 C-19.34765625 15.5546875 -19.34765625 15.5546875 -17.0625 13.875 C-12.8223494 10.67981542 -8.86642352 7.27600282 -4.9453125 3.69921875 C-3 2 -3 2 0 0 Z " fill="#272727" transform="translate(149,100)"/>
<path d="M0 0 C0.97195313 0.23074219 1.94390625 0.46148437 2.9453125 0.69921875 C7.70908947 1.84797696 12.38163049 3.09612443 17 4.75 C16.67 5.41 16.34 6.07 16 6.75 C16.495 8.235 16.495 8.235 17 9.75 C16.67 10.41 16.34 11.07 16 11.75 C8.914805 10.76051587 2.03658314 8.78275291 -4.8828125 7.00976562 C-11.22533254 5.40017143 -17.568392 3.95749061 -24 2.75 C-24 2.42 -24 2.09 -24 1.75 C-22.37239583 1.29427083 -20.74479167 0.83854167 -19.1171875 0.3828125 C-16.88133793 -0.22719038 -16.88133793 -0.22719038 -14.4453125 -1.4609375 C-9.30093454 -2.63912837 -5.04480188 -1.27792727 0 0 Z " fill="#232323" transform="translate(300,70.25)"/>
<path d="M0 0 C-0.55193798 4.62688432 -1.12875477 9.24950959 -1.73095703 13.87011719 C-1.97461348 15.79902725 -2.19012624 17.73144091 -2.40234375 19.6640625 C-2.60537109 21.25347656 -2.60537109 21.25347656 -2.8125 22.875 C-2.92207031 23.82117188 -3.03164063 24.76734375 -3.14453125 25.7421875 C-4 28 -4 28 -6.57421875 29.3203125 C-7.77498047 29.65675781 -7.77498047 29.65675781 -9 30 C-10.54799941 28.45200059 -10.16968838 27.03376865 -10.1875 24.875 C-10.1196869 17.06519147 -9.47717366 8.43152098 -7 1 C-4.52260646 0.09162237 -2.66420516 0 0 0 Z " fill="#181617" transform="translate(439,262)"/>
<path d="M0 0 C2 1 2 1 3.3359375 3.24609375 C5.71994503 7.19145832 8.87133921 10.27103422 12.0390625 13.59765625 C13.90469471 15.88324153 14.73787336 17.09788362 15 20 C14.67 20.66 14.34 21.32 14 22 C11.9375 22.4375 11.9375 22.4375 9 22 C4.42633553 18.47786999 0.88538637 13.96286455 -2 9 C-2 8.34 -2 7.68 -2 7 C-2.66 7 -3.32 7 -4 7 C-4.6875 5.1875 -4.6875 5.1875 -5 3 C-3.50423802 0.71699487 -2.76466997 0 0 0 Z " fill="#1F1F1F" transform="translate(117,354)"/>
<path d="M0 0 C4.47559671 8.5593209 10 20.17499068 10 30 C8.02 29.67 6.04 29.34 4 29 C3.67 29.66 3.34 30.32 3 31 C1.82882795 27.20970992 0.66382785 23.41755098 -0.5 19.625 C-0.83386719 18.54476562 -1.16773438 17.46453125 -1.51171875 16.3515625 C-1.82753906 15.3203125 -2.14335937 14.2890625 -2.46875 13.2265625 C-2.76201172 12.27346191 -3.05527344 11.32036133 -3.35742188 10.33837891 C-4 8 -4 8 -4 6 C-2.68 6 -1.36 6 0 6 C0 4.02 0 2.04 0 0 Z " fill="#292728" transform="translate(424,175)"/>
<path d="M0 0 C2 3 2 3 1.8125 6.375 C1.03017106 9.86539065 0.02785348 12.09047109 -2 15 C-5.3 14.67 -8.6 14.34 -12 14 C-12.75 11.75 -12.75 11.75 -13 9 C-10.71576111 5.95434815 -8.77800868 4.53971553 -5 4 C-6.65 4 -8.3 4 -10 4 C-10 3.01 -10 2.02 -10 1 C-6.43904118 -1.32831923 -4.04274788 -1.14251571 0 0 Z M-8 8 C-8.33 8.66 -8.66 9.32 -9 10 C-7.68 9.67 -6.36 9.34 -5 9 C-5.99 8.67 -6.98 8.34 -8 8 Z " fill="#2C2C2C" transform="translate(174,392)"/>
<path d="M0 0 C1.32 0 2.64 0 4 0 C5.75 2.5 5.75 2.5 7 5 C7.45375 4.175 7.9075 3.35 8.375 2.5 C8.91125 1.675 9.4475 0.85 10 0 C10.66 0 11.32 0 12 0 C12 1.98 12 3.96 12 6 C13.6396875 6.2165625 13.6396875 6.2165625 15.3125 6.4375 C19 7 19 7 22 8 C22.33 9.32 22.66 10.64 23 12 C19.7 11.67 16.4 11.34 13 11 C12.67 12.65 12.34 14.3 12 16 C11.01 16 10.02 16 9 16 C9 15.34 9 14.68 9 14 C8.34 14 7.68 14 7 14 C3.26304756 9.42223326 1.28934218 5.74343333 0 0 Z " fill="#282828" transform="translate(319,398)"/>
<path d="M0 0 C3.83533032 0.59483132 6.03665842 2.37768123 9 4.8125 C9.845625 5.49957031 10.69125 6.18664062 11.5625 6.89453125 C17.94624506 12.40869565 17.94624506 12.40869565 18.25 15.75 C18.1675 16.4925 18.085 17.235 18 18 C13.0012995 17.51792948 10.12432824 16.05928661 6.125 13.0625 C5.15820312 12.35222656 4.19140625 11.64195313 3.1953125 10.91015625 C2.47085937 10.27980469 1.74640625 9.64945313 1 9 C1 8.34 1 7.68 1 7 C0.01 6.67 -0.98 6.34 -2 6 C-2 5.34 -2 4.68 -2 4 C-1.01 3.34 -0.02 2.68 1 2 C0.67 1.34 0.34 0.68 0 0 Z " fill="#1F1E1F" transform="translate(363,101)"/>
<path d="M0 0 C12.91907349 10.54618244 12.91907349 10.54618244 14.8203125 16.62109375 C14.87960937 17.40613281 14.93890625 18.19117188 15 19 C14.34 19.66 13.68 20.32 13 21 C10.03049827 20.86816166 8.98253002 19.98340508 6.81640625 17.92578125 C6.07261719 17.06339844 5.32882812 16.20101562 4.5625 15.3125 C3.78132813 14.41402344 3.00015625 13.51554687 2.1953125 12.58984375 C1.47085937 11.73519531 0.74640625 10.88054687 0 10 C-0.83917969 9.01193359 -0.83917969 9.01193359 -1.6953125 8.00390625 C-2.8078459 6.67840217 -3.90609349 5.34091766 -5 4 C-2.525 4.495 -2.525 4.495 0 5 C-0.33 4.01 -0.66 3.02 -1 2 C-0.67 1.34 -0.34 0.68 0 0 Z " fill="#262626" transform="translate(381,114)"/>
<path d="M0 0 C2.375 0.1875 2.375 0.1875 4 1 C4 1.66 4 2.32 4 3 C2.01739574 4.68732277 0.0167658 6.35366057 -2 8 C-2.33 8.66 -2.66 9.32 -3 10 C-1.68 10.66 -0.36 11.32 1 12 C0.67 12.99 0.34 13.98 0 15 C-1.98 14.34 -3.96 13.68 -6 13 C-6.33 13.66 -6.66 14.32 -7 15 C-4.69 15.33 -2.38 15.66 0 16 C0 16.66 0 17.32 0 18 C-1.62490954 18.02698189 -3.24994633 18.04638757 -4.875 18.0625 C-6.23238281 18.07990234 -6.23238281 18.07990234 -7.6171875 18.09765625 C-10 18 -10 18 -12 17 C-11.48374042 14.9349617 -10.96808504 12.90135375 -10.3125 10.875 C-10.209375 10.25625 -10.10625 9.6375 -10 9 C-10.66 8.34 -11.32 7.68 -12 7 C-12 6.01 -12 5.02 -12 4 C-11.13375 4.268125 -10.2675 4.53625 -9.375 4.8125 C-6.14553273 5.33425245 -6.14553273 5.33425245 -4.40625 3.91796875 C-3.9009375 3.45003906 -3.395625 2.98210937 -2.875 2.5 C-1.451875 1.2625 -1.451875 1.2625 0 0 Z " fill="#2E2E2E" transform="translate(161,379)"/>
<path d="M0 0 C0.33 0 0.66 0 1 0 C1.33 2.31 1.66 4.62 2 7 C2.99 6.34 3.98 5.68 5 5 C5.98188992 8.07587222 5.99226328 9.9549895 5.07421875 13.0390625 C4.85443359 13.78414063 4.63464844 14.52921875 4.40820312 15.296875 C4.17037109 16.06515625 3.93253906 16.8334375 3.6875 17.625 C3.46126953 18.40101563 3.23503906 19.17703125 3.00195312 19.9765625 C1.26846856 25.73153144 1.26846856 25.73153144 -1 28 C-1.99 27.67 -2.98 27.34 -4 27 C-5.29016004 20.32516002 -4.46648631 15.47255922 -2.5625 9 C-2.31951172 8.12988281 -2.07652344 7.25976562 -1.82617188 6.36328125 C-1.23064041 4.23805131 -0.6218072 2.11766113 0 0 Z " fill="#232122" transform="translate(428,284)"/>
<path d="M0 0 C0.66 0 1.32 0 2 0 C2.43723237 6.55848549 1.69416749 14.48716283 -2.4140625 19.84375 C-4 21 -4 21 -7.0625 20.75 C-10 20 -10 20 -12 19 C-12.8125 17.25 -12.8125 17.25 -13 15 C-11.85213059 12.75643706 -10.7904233 10.7904233 -9 9 C-7.33382885 8.95936168 -5.66611905 8.957279 -4 9 C-2.68 6.03 -1.36 3.06 0 0 Z M-8 13 C-8.33 13.99 -8.66 14.98 -9 16 C-7.68 16.33 -6.36 16.66 -5 17 C-5 15.68 -5 14.36 -5 13 C-5.99 13 -6.98 13 -8 13 Z " fill="#212121" transform="translate(204,399)"/>
<path d="M0 0 C2.4375 0.9375 2.4375 0.9375 3.75 3.5 C4.0903125 4.7065625 4.0903125 4.7065625 4.4375 5.9375 C5.0975 5.6075 5.7575 5.2775 6.4375 4.9375 C5.82726378 11.40600394 5.82726378 11.40600394 4.0625 13.8125 C2.4375 14.9375 2.4375 14.9375 -0.5625 15.9375 C-5.22916667 13.60416667 -5.22916667 13.60416667 -6.5625 10.9375 C-6.546875 8.84375 -6.546875 8.84375 -6.3125 6.4375 C-6.24546875 5.6434375 -6.1784375 4.849375 -6.109375 4.03125 C-5.22048381 0.62806659 -3.35435701 -0.08181359 0 0 Z M-1.5625 3.9375 C-1.5625 6.9375 -1.5625 6.9375 -1.5625 6.9375 Z " fill="#272727" transform="translate(346.5625,391.0625)"/>
<path d="M0 0 C0.99 0.33 1.98 0.66 3 1 C3.73046875 3.06640625 3.73046875 3.06640625 4.1875 5.5625 C4.34605469 6.38878906 4.50460937 7.21507812 4.66796875 8.06640625 C4.77753906 8.70449219 4.88710938 9.34257812 5 10 C6.98 9.67 8.96 9.34 11 9 C15 13.625 15 13.625 15 17 C14.01 17 13.02 17 12 17 C11.67 15.68 11.34 14.36 11 13 C10.01 13.33 9.02 13.66 8 14 C8.061875 15.11375 8.12375 16.2275 8.1875 17.375 C8.125625 18.57125 8.06375 19.7675 8 21 C7.01 21.66 6.02 22.32 5 23 C0.58878946 18.58878946 -1.24804447 9.92483983 -1.3125 3.75 C-1 1 -1 1 0 0 Z " fill="#373737" transform="translate(285,405)"/>
<path d="M0 0 C0.556875 0.226875 1.11375 0.45375 1.6875 0.6875 C0.44442861 6.07414268 -2.32874401 9.54727438 -5.75390625 13.734375 C-7.35870647 15.60630016 -7.35870647 15.60630016 -8.3125 17.6875 C-10.2925 17.6875 -12.2725 17.6875 -14.3125 17.6875 C-14.6425 17.0275 -14.9725 16.3675 -15.3125 15.6875 C-13.12588808 9.37062112 -10.15898032 4.83971683 -4.75 0.75 C-2.3125 -0.3125 -2.3125 -0.3125 0 0 Z " fill="#1B1A1A" transform="translate(412.3125,339.3125)"/>
<path d="M0 0 C2.99371503 2.99371503 2.29256348 5.80494229 2.32226562 9.8984375 C2.31743164 11.43371094 2.31743164 11.43371094 2.3125 13 C2.32861328 14.02351562 2.34472656 15.04703125 2.36132812 16.1015625 C2.36197266 17.07867187 2.36261719 18.05578125 2.36328125 19.0625 C2.36626221 19.96097656 2.36924316 20.85945313 2.37231445 21.78515625 C2.24945068 22.51605469 2.12658691 23.24695313 2 24 C-1 26 -1 26 -5 26 C-5.18451025 12.3667426 -5.18451025 12.3667426 -4 6 C-3.67 6.66 -3.34 7.32 -3 8 C-2.34 7.67 -1.68 7.34 -1 7 C-0.59270772 4.67843403 -0.25561323 2.3431213 0 0 Z " fill="#151314" transform="translate(437,237)"/>
<path d="M0 0 C0.33 0 0.66 0 1 0 C1 9.24 1 18.48 1 28 C0.67 27.01 0.34 26.02 0 25 C-3.16115776 26.36983503 -3.9927092 26.9890638 -6 30 C-5.91946759 25.54090702 -5.8065955 21.0832166 -5.6875 16.625 C-5.66494141 15.35398438 -5.64238281 14.08296875 -5.61914062 12.7734375 C-5.58369141 11.56171875 -5.54824219 10.35 -5.51171875 9.1015625 C-5.48553467 7.98088379 -5.45935059 6.86020508 -5.43237305 5.70556641 C-5.28968994 4.81272949 -5.14700684 3.91989258 -5 3 C-4.01 2.34 -3.02 1.68 -2 1 C-1.67 1.33 -1.34 1.66 -1 2 C-0.67 1.34 -0.34 0.68 0 0 Z " fill="#403F3F" transform="translate(81,237)"/>
<path d="M0 0 C1.22589844 0.29197266 1.22589844 0.29197266 2.4765625 0.58984375 C3.41628906 0.82380859 3.41628906 0.82380859 4.375 1.0625 C4.375 1.7225 4.375 2.3825 4.375 3.0625 C5.138125 3.330625 5.90125 3.59875 6.6875 3.875 C9.24880884 5.00674112 10.57192938 5.97473401 12.375 8.0625 C11.625 10 11.625 10 10.375 12.0625 C8.53125 12.85546875 8.53125 12.85546875 6.375 13.0625 C4.515625 12.0234375 4.515625 12.0234375 2.625 10.4375 C-1.27848273 7.29710412 -5.33493352 4.64110379 -9.625 2.0625 C-5.60400839 -0.61816107 -4.61133095 -1.11989466 0 0 Z " fill="#272727" transform="translate(352.625,92.9375)"/>
<path d="M0 0 C1.32 0.33 2.64 0.66 4 1 C3.67 11.23 3.34 21.46 3 32 C2.67 32 2.34 32 2 32 C1.67 26.06 1.34 20.12 1 14 C0.01 14.495 0.01 14.495 -1 15 C-1.33 22.59 -1.66 30.18 -2 38 C-2.33 38 -2.66 38 -3 38 C-3.04953687 33.80079763 -3.08578411 29.60175131 -3.10986328 25.40234375 C-3.11990427 23.97457922 -3.13353981 22.54683517 -3.15087891 21.11914062 C-3.17521152 19.06375059 -3.18650202 17.00863308 -3.1953125 14.953125 C-3.20578613 13.71723633 -3.21625977 12.48134766 -3.22705078 11.20800781 C-3.00965337 8.13639279 -2.55696248 6.58679358 -1 4 C-0.63215869 2.6757713 -0.28797019 1.34386088 0 0 Z " fill="#141313" transform="translate(78,225)"/>
<path d="M0 0 C2.475 0.99 2.475 0.99 5 2 C5 1.34 5 0.68 5 0 C5.66 0 6.32 0 7 0 C10.58125682 6.24161903 12.67090715 10.75420281 12 18 C10.35 18 8.7 18 7 18 C5.82625827 15.56568361 4.66084237 13.12795818 3.5 10.6875 C3.16613281 9.99720703 2.83226562 9.30691406 2.48828125 8.59570312 C0 3.33984375 0 3.33984375 0 0 Z " fill="#222021" transform="translate(412,163)"/>
<path d="M0 0 C5.46864457 1.01591421 10.76390013 2.07091057 16 4 C15.67 4.66 15.34 5.32 15 6 C15.33 6.99 15.66 7.98 16 9 C15.67 9.66 15.34 10.32 15 11 C10.80716882 10.35155914 6.73500079 9.48783354 2.625 8.4375 C1.56539063 8.16808594 0.50578125 7.89867188 -0.5859375 7.62109375 C-1.38257813 7.41613281 -2.17921875 7.21117188 -3 7 C-2.34 6.67 -1.68 6.34 -1 6 C-0.34227572 2.97065509 -0.34227572 2.97065509 0 0 Z " fill="#2B2B2B" transform="translate(301,71)"/>
<path d="M0 0 C2.4750171 1.11431765 4.67883419 2.58150978 7 4 C7 5.65 7 7.3 7 9 C4.03824877 8.38722388 2.61941217 7.74627478 0 6 C0.33 8.97 0.66 11.94 1 15 C-2.60244452 14.69121904 -3.99345998 14.00552268 -6.8125 11.625 C-9 9 -9 9 -9 6 C-7.824375 5.87625 -7.824375 5.87625 -6.625 5.75 C-3.85955198 5.28474077 -3.85955198 5.28474077 -2.8125 3 C-2.544375 2.34 -2.27625 1.68 -2 1 C-1.34 0.67 -0.68 0.34 0 0 Z " fill="#454545" transform="translate(360,383)"/>
<path d="M0 0 C0.99 0 1.98 0 3 0 C3 0.99 3 1.98 3 3 C3.886875 2.505 4.77375 2.01 5.6875 1.5 C8.87586238 0.05621326 10.58187546 -0.30159922 14 0 C13.67 1.65 13.34 3.3 13 5 C12.21625 5.12375 11.4325 5.2475 10.625 5.375 C7.85942178 5.79117993 7.85942178 5.79117993 6 8 C5.83322718 11.58343976 5.83322718 11.58343976 6 15 C4.68 15.33 3.36 15.66 2 16 C1.47222137 13.52212405 0.95249746 11.0430336 0.4375 8.5625 C0.28603516 7.85544922 0.13457031 7.14839844 -0.02148438 6.41992188 C-0.39144575 4.62173751 -0.7005656 2.81126406 -1 1 C-0.67 0.67 -0.34 0.34 0 0 Z " fill="#272727" transform="translate(233,415)"/>
<path d="M0 0 C1.33333333 0.66666667 2.66666667 1.33333333 4 2 C3.34 6.62 2.68 11.24 2 16 C-0.475 15.01 -0.475 15.01 -3 14 C-2.938125 14.763125 -2.87625 15.52625 -2.8125 16.3125 C-3.03403312 19.48780806 -3.71775032 19.95735659 -6 22 C-5.69152766 19.06202558 -5.37839777 16.12467718 -5.0625 13.1875 C-4.97548828 12.35412109 -4.88847656 11.52074219 -4.79882812 10.66210938 C-4.71181641 9.85966797 -4.62480469 9.05722656 -4.53515625 8.23046875 C-4.456604 7.49207764 -4.37805176 6.75368652 -4.29711914 5.99291992 C-4 4 -4 4 -3 1 C-2.01 0.67 -1.02 0.34 0 0 Z " fill="#2D2C2C" transform="translate(81,211)"/>
<path d="M0 0 C0.33 0 0.66 0 1 0 C1.27404536 6.98815666 1.12955878 11.68345103 -3.6875 17.0625 C-6.24644173 19.65071531 -6.24644173 19.65071531 -5.89453125 22.08203125 C-5.16547637 24.14367642 -5.16547637 24.14367642 -3.1875 24.9765625 C-2.465625 25.19054687 -1.74375 25.40453125 -1 25.625 C1.1875 26.2890625 1.1875 26.2890625 3 27 C3.33 27.66 3.66 28.32 4 29 C6.3140622 29.73075648 8.64828869 30.40138258 11 31 C11 30.34 11 29.68 11 29 C11.66 29 12.32 29 13 29 C12.67 29.99 12.34 30.98 12 32 C9.3125 32.75 9.3125 32.75 6 33 C4.29803595 31.7120272 2.63654821 30.37013339 1 29 C-1.34272074 28.07175216 -3.69404515 27.32908265 -6.109375 26.61328125 C-8 26 -8 26 -9 25 C-9.47634441 21.59753994 -9.74035662 19.07522561 -7.73046875 16.15625 C-6.65643756 14.96462415 -5.56763213 13.78615724 -4.46484375 12.62109375 C-1.18278447 8.98894815 -0.65745049 4.71172852 0 0 Z " fill="#DC805A" transform="translate(303,190)"/>
<path d="M0 0 C1.32 0 2.64 0 4 0 C4.33 1.32 4.66 2.64 5 4 C6.98 4 8.96 4 11 4 C11 7.3 11 10.6 11 14 C9.68 14 8.36 14 7 14 C7 12.02 7 10.04 7 8 C6.236875 8.66 5.47375 9.32 4.6875 10 C2 12 2 12 -1 12 C-1.02712066 10.56260487 -1.04645067 9.12506137 -1.0625 7.6875 C-1.07410156 6.88699219 -1.08570313 6.08648437 -1.09765625 5.26171875 C-1 3 -1 3 0 0 Z " fill="#2B2B2B" transform="translate(178,400)"/>
<path d="M0 0 C1.50887917 2.96289 2.92889463 5.94843266 4.25 9 C4.62640625 9.845625 5.0028125 10.69125 5.390625 11.5625 C6 14 6 14 5.109375 16.3125 C4.74328125 16.869375 4.3771875 17.42625 4 18 C1.6875 17.9375 1.6875 17.9375 -1 17 C-3.1846806 13.08264169 -4.82920492 9.50139812 -4 5 C-2 2.1875 -2 2.1875 0 0 Z " fill="#2A2A2A" transform="translate(88,299)"/>
<path d="M0 0 C0.48756219 6.33830846 0.48756219 6.33830846 -1.75 9.375 C-3.97470467 10.98173115 -5.28849241 11.73759604 -8 12 C-8.99 11.67 -9.98 11.34 -11 11 C-11.75 8.875 -11.75 8.875 -12 6 C-8.47040226 -0.32893389 -6.99459884 -1.36850847 0 0 Z M-7 3 C-7.33 4.65 -7.66 6.3 -8 8 C-6.68 7.34 -5.36 6.68 -4 6 C-4 5.01 -4 4.02 -4 3 C-4.99 3 -5.98 3 -7 3 Z " fill="#3B3B3B" transform="translate(217,413)"/>
<path d="M0 0 C-0.33 1.32 -0.66 2.64 -1 4 C-2.32 4 -3.64 4 -5 4 C-5.33 5.65 -5.66 7.3 -6 9 C-3.69 7.68 -1.38 6.36 1 5 C1.33 5.66 1.66 6.32 2 7 C0.4375 9.5 0.4375 9.5 -2 12 C-5.75 12.3125 -5.75 12.3125 -9 12 C-10.59511297 8.80977406 -10.37542561 5.47091604 -10 2 C-7.75198885 -2.36378636 -4.22539083 -0.87696791 0 0 Z " fill="#383838" transform="translate(282,417)"/>
<path d="M0 0 C1.65 0.33 3.3 0.66 5 1 C5.42765417 7.41481258 3.85743168 12.88595404 2 19 C1.54625 18.505 1.0925 18.01 0.625 17.5 C-0.87635519 15.77390663 -0.87635519 15.77390663 -3 16 C-2.52013969 10.43109483 -1.70084819 5.32932432 0 0 Z " fill="#222222" transform="translate(82,196)"/>
<path d="M0 0 C1.3921875 0.3403125 1.3921875 0.3403125 2.8125 0.6875 C2.1525 2.0075 1.4925 3.3275 0.8125 4.6875 C0.1525 4.6875 -0.5075 4.6875 -1.1875 4.6875 C-1.5175 6.0075 -1.8475 7.3275 -2.1875 8.6875 C0.93447478 7.3785428 0.93447478 7.3785428 2.8125 4.6875 C3.4725 4.6875 4.1325 4.6875 4.8125 4.6875 C4.26526317 8.06212715 3.7576 9.76985 1.8125 12.6875 C-1.125 13.1875 -1.125 13.1875 -4.1875 12.6875 C-6.51754934 10.05679913 -7.23025754 8.58540826 -7.0625 5.0625 C-5.52344841 0.88507425 -4.62819422 -0.45374453 0 0 Z " fill="#2F2F2F" transform="translate(318.1875,407.3125)"/>
<path d="M0 0 C0.28529057 3.37910827 0.43881293 6.63035009 0 10 C-2.25 12.1875 -2.25 12.1875 -5 13 C-7.20543633 12.75495152 -8.42419664 12.57580336 -10 11 C-10.04132809 6.85065989 -9.93572618 3.13623894 -7.25 -0.125 C-4.4373166 -1.21882132 -2.84807144 -0.87024405 0 0 Z M-6 4 C-6.33 5.98 -6.66 7.96 -7 10 C-5.68 9.01 -4.36 8.02 -3 7 C-3.33 6.01 -3.66 5.02 -4 4 C-4.66 4 -5.32 4 -6 4 Z " fill="#2C2C2C" transform="translate(229,415)"/>
<path d="M0 0 C0 0.66 0 1.32 0 2 C-1.65 2.66 -3.3 3.32 -5 4 C-4.67 4.66 -4.34 5.32 -4 6 C-3.01 5.67 -2.02 5.34 -1 5 C1.33299825 4.96045766 3.66708189 4.95598268 6 5 C2.29967609 7.03043415 -1.63141057 8.30910463 -5.625 9.625 C-6.305625 9.85445312 -6.98625 10.08390625 -7.6875 10.3203125 C-12.74655878 12 -12.74655878 12 -15 12 C-14.46755791 8.16641693 -13.8586739 5.68000678 -11 3 C-7.50002933 1.4972603 -3.84305741 0 0 0 Z " fill="#313031" transform="translate(202,74)"/>
<path d="M0 0 C1.32 0.33 2.64 0.66 4 1 C4.625 3.3125 4.625 3.3125 5 6 C2.69852146 9.45221781 1.76852609 9.62962688 -2 11 C-4.00751815 11.98482022 -6.00934459 12.98152514 -8 14 C-6.58036591 8.32146365 -3.60636039 4.46825784 0 0 Z " fill="#1C1C1C" transform="translate(106,145)"/>
<path d="M0 0 C0.33 0 0.66 0 1 0 C1 1.98 1 3.96 1 6 C1.66 4.68 2.32 3.36 3 2 C3.66 2 4.32 2 5 2 C5.6875 3.75 5.6875 3.75 6 6 C4.5625 8.25 4.5625 8.25 3 10 C3 9.34 3 8.68 3 8 C2.01 8.33 1.02 8.66 0 9 C-0.33 10.98 -0.66 12.96 -1 15 C-2.65 15.33 -4.3 15.66 -6 16 C-5.37183502 12.05050296 -4.1354471 8.80107972 -2.4375 5.1875 C-1.98246094 4.21167969 -1.52742188 3.23585937 -1.05859375 2.23046875 C-0.70925781 1.49441406 -0.35992187 0.75835937 0 0 Z " fill="#2D2D2D" transform="translate(92,168)"/>
<path d="M0 0 C2.78477703 2.34071799 3.49379937 3.96419712 3.875 7.5625 C4.44679928 15.39615011 1.75013737 22.21403714 -2 29 C-2.66 29 -3.32 29 -4 29 C-4.28875 29.639375 -4.5775 30.27875 -4.875 30.9375 C-6 33 -6 33 -8 34 C-7.67 32.68 -7.34 31.36 -7 30 C-6.34 30 -5.68 30 -5 30 C-5 29.01 -5 28.02 -5 27 C-4.34 27 -3.68 27 -3 27 C-3 26.01 -3 25.02 -3 24 C-2.34 24 -1.68 24 -1 24 C-1 22.02 -1 20.04 -1 18 C-0.34 18 0.32 18 1 18 C1.02717692 15.93757383 1.0464758 13.87504297 1.0625 11.8125 C1.07410156 10.66394531 1.08570313 9.51539063 1.09765625 8.33203125 C1.01192832 5.40699414 0.67849023 2.83683709 0 0 Z " fill="#E28C6C" transform="translate(344,145)"/>
<path d="M0 0 C2.83047149 1.41523575 3.65938831 3.18471545 5 6 C5 6.99 5 7.98 5 9 C3.02 9.33 1.04 9.66 -1 10 C-1.33 9.01 -1.66 8.02 -2 7 C-2.66 7 -3.32 7 -4 7 C-4.6875 5.1875 -4.6875 5.1875 -5 3 C-3.50423802 0.71699487 -2.76466997 0 0 0 Z " fill="#191919" transform="translate(117,354)"/>
<path d="M0 0 C2.31 0.66 4.62 1.32 7 2 C6.71758359 3.46015291 6.42373386 4.91809793 6.125 6.375 C5.96257812 7.18710937 5.80015625 7.99921875 5.6328125 8.8359375 C5 11 5 11 3 13 C2.01 12.67 1.02 12.34 0 12 C-1.28571429 3.42857143 -1.28571429 3.42857143 0 0 Z " fill="#313031" transform="translate(424,299)"/>
<path d="M0 0 C-0.66 0.66 -1.32 1.32 -2 2 C-2.64767793 4.57061311 -2.64767793 4.57061311 -3 7 C-7.94367454 8.20577428 -11.20862412 7.6290678 -16 6 C-13.63078826 3.28787603 -11.32893261 2.07761003 -8 0.75 C-7.13375 0.39421875 -6.2675 0.0384375 -5.375 -0.328125 C-3 -1 -3 -1 0 0 Z " fill="#262425" transform="translate(190,80)"/>
<path d="M0 0 C2.33364352 2.92903058 4.04960836 5.88568203 5.6875 9.25 C6.12449219 10.14203125 6.56148438 11.0340625 7.01171875 11.953125 C7.33785156 12.62859375 7.66398437 13.3040625 8 14 C4.535 15.485 4.535 15.485 1 17 C-0.85572114 13.59784459 -1.08808234 12.32884073 -0.0625 8.5 C0.288125 7.345 0.63875 6.19 1 5 C0.72265062 2.17855097 0.72265062 2.17855097 0 0 Z " fill="#2E2E2E" transform="translate(98,324)"/>
<path d="M0 0 C0.886875 0.185625 1.77375 0.37125 2.6875 0.5625 C5.88956019 1.17665171 5.88956019 1.17665171 8.5625 0.4375 C11.62242963 -0.11171814 13.2481348 0.66337976 16 2 C15.8125 3.875 15.8125 3.875 15 6 C12.9375 7.625 12.9375 7.625 10 8 C6.21674569 5.8692016 3.05888409 3.05888409 0 0 Z " fill="#2E2D2E" transform="translate(349,98)"/>
<path d="M0 0 C3.39417765 3.12621626 5.6062718 5.56541027 7 10 C4.92495298 11.25984998 3.44537763 11.98608195 1 12.0625 C-2.30951274 10.30432136 -3.32635135 7.28752414 -5 4 C-2.525 4.495 -2.525 4.495 0 5 C0 3.35 0 1.7 0 0 Z " fill="#2F2F2F" transform="translate(407,145)"/>
<path d="M0 0 C0.33 0.66 0.66 1.32 1 2 C3.64 1.67 6.28 1.34 9 1 C7.73333442 4.79999673 6.41402726 5.95158364 3 8 C0.98777953 7.3711811 -1.01276732 6.70381157 -3 6 C-5.8552976 7.24471981 -5.8552976 7.24471981 -8 9 C-8 8.01 -8 7.02 -8 6 C-6.25 4.39453125 -6.25 4.39453125 -4 2.8125 C-3.2575 2.28269531 -2.515 1.75289063 -1.75 1.20703125 C-1.1725 0.80871094 -0.595 0.41039063 0 0 Z " fill="#2E2E2E" transform="translate(149,100)"/>
<path d="M0 0 C0.33 0.66 0.66 1.32 1 2 C1.99 2.33 2.98 2.66 4 3 C3.67 5.64 3.34 8.28 3 11 C1.35 11.33 -0.3 11.66 -2 12 C-3.28317892 8.15046324 -3.06643637 5.05261865 -3 1 C-2.01 0.67 -1.02 0.34 0 0 Z " fill="#201F20" transform="translate(431,203)"/>
<path d="M0 0 C1.65 0 3.3 0 5 0 C5 0.99 5 1.98 5 3 C4.34 3 3.68 3 3 3 C3 3.66 3 4.32 3 5 C1.00715862 6.3440093 -0.99419671 7.67541292 -3 9 C-4.6857124 10.64740076 -6.3563186 12.31066078 -8 14 C-8.99 14.495 -8.99 14.495 -10 15 C-9.67 12.69 -9.34 10.38 -9 8 C-7.68 8 -6.36 8 -5 8 C-4.67 6.68 -4.34 5.36 -4 4 C-2.35 4 -0.7 4 1 4 C0.67 2.68 0.34 1.36 0 0 Z " fill="#E27E56" transform="translate(331,177)"/>
<path d="M0 0 C0.33 0.66 0.66 1.32 1 2 C-4.75 4 -4.75 4 -7 4 C-7.33 4.66 -7.66 5.32 -8 6 C-7.01 6.33 -6.02 6.66 -5 7 C-8.73486879 7.5745952 -12.21293268 8 -16 8 C-16 7.34 -16 6.68 -16 6 C-15.195625 5.731875 -14.39125 5.46375 -13.5625 5.1875 C-12.716875 4.795625 -11.87125 4.40375 -11 4 C-10.67 3.01 -10.34 2.02 -10 1 C-6.76421296 -0.31828361 -3.44785988 -0.07836045 0 0 Z " fill="#191718" transform="translate(213,72)"/>
<path d="M0 0 C3.465 1.98 3.465 1.98 7 4 C7 5.65 7 7.3 7 9 C4.03824877 8.38722388 2.61941217 7.74627478 0 6 C-0.99 6.66 -1.98 7.32 -3 8 C-3.1875 5.125 -3.1875 5.125 -3 2 C-2.01 1.34 -1.02 0.68 0 0 Z " fill="#3B3B3B" transform="translate(360,383)"/>
<path d="M0 0 C4.875 4.625 4.875 4.625 6 8 C5.360625 8.103125 4.72125 8.20625 4.0625 8.3125 C3.0415625 8.6528125 3.0415625 8.6528125 2 9 C1.67 9.99 1.34 10.98 1 12 C-0.65 10.35 -2.3 8.7 -4 7 C-3.67 6.01 -3.34 5.02 -3 4 C-2.34 3.67 -1.68 3.34 -1 3 C-0.67 2.01 -0.34 1.02 0 0 Z " fill="#2F2F2F" transform="translate(111,346)"/>
<path d="M0 0 C0.66 0 1.32 0 2 0 C2 1.98 2 3.96 2 6 C3.6396875 6.2165625 3.6396875 6.2165625 5.3125 6.4375 C9 7 9 7 12 8 C12.6875 10.0625 12.6875 10.0625 13 12 C11.3739713 11.93999894 9.74898451 11.8512115 8.125 11.75 C6.76761719 11.68039062 6.76761719 11.68039062 5.3828125 11.609375 C3 11 3 11 1.71875 9.1875 C0.72629169 6.16697471 0.36356929 3.15093388 0 0 Z " fill="#545454" transform="translate(329,398)"/>
<path d="M0 0 C-1.65 1.32 -3.3 2.64 -5 4 C-3.68 4.66 -2.36 5.32 -1 6 C-1.99 6 -2.98 6 -4 6 C-4.33 6.99 -4.66 7.98 -5 9 C-6.65 8.67 -8.3 8.34 -10 8 C-9.6875 5.125 -9.6875 5.125 -9 2 C-5.5647952 -0.29013653 -4.014669 -0.17842973 0 0 Z " fill="#424242" transform="translate(171,397)"/>
<path d="M0 0 C3.875 1.75 3.875 1.75 5 4 C5.039992 5.99960012 5.04346799 8.00047242 5 10 C2.6875 9.9375 2.6875 9.9375 0 9 C-1.8125 5.4375 -1.8125 5.4375 -3 2 C-2.01 1.34 -1.02 0.68 0 0 Z " fill="#171617" transform="translate(402,140)"/>
<path d="M0 0 C0.66 1.32 1.32 2.64 2 4 C2.66 3.67 3.32 3.34 4 3 C3.38976378 9.46850394 3.38976378 9.46850394 1.625 11.875 C0 13 0 13 -3 14 C-3.66 13.67 -4.32 13.34 -5 13 C-5 12.01 -5 11.02 -5 10 C-4.360625 9.835 -3.72125 9.67 -3.0625 9.5 C-0.83880759 8.218214 -0.83880759 8.218214 -0.51171875 6.0859375 C-0.2724022 4.06424845 -0.13106972 2.03158061 0 0 Z " fill="#353535" transform="translate(349,393)"/>
<path d="M0 0 C0.99 0.33 1.98 0.66 3 1 C0.69 5.29 -1.62 9.58 -4 14 C-4.33 14 -4.66 14 -5 14 C-6.14106583 8.82131661 -6.14106583 8.82131661 -6 6 C-3.625 3.0625 -3.625 3.0625 -1 1 C-0.67 0.67 -0.34 0.34 0 0 Z " fill="#343434" transform="translate(105,154)"/>
<path d="M0 0 C0.99 0 1.98 0 3 0 C2.67 0.79921875 2.34 1.5984375 2 2.421875 C0.76830496 6.8290338 0.85354409 10.70986692 1 15.25 C1.09301711 18.18934054 1.09385491 21.05530233 1 24 C0.34 24.66 -0.32 25.32 -1 26 C-1.0291544 22.60418484 -1.04685068 19.20840214 -1.0625 15.8125 C-1.07087891 14.85279297 -1.07925781 13.89308594 -1.08789062 12.90429688 C-1.09111328 11.97294922 -1.09433594 11.04160156 -1.09765625 10.08203125 C-1.10289307 9.22843018 -1.10812988 8.3748291 -1.11352539 7.49536133 C-0.99579323 4.90753253 -0.57107044 2.52338047 0 0 Z " fill="#DF8664" transform="translate(317,193)"/>
<path d="M0 0 C0.66 0 1.32 0 2 0 C2.66 2.31 3.32 4.62 4 7 C2.25 8.125 2.25 8.125 0 9 C-2.25 8.125 -2.25 8.125 -4 7 C-3.67 5.35 -3.34 3.7 -3 2 C-2.01 2 -1.02 2 0 2 C0 1.34 0 0.68 0 0 Z " fill="#313131" transform="translate(90,308)"/>
<path d="M0 0 C1.97614897 2.78985737 2.10310462 4.83334677 1.75 8.125 C1 12 1 12 -1 14 C-1.39764263 15.98821313 -1.73775349 17.98944339 -2 20 C-2.33 20 -2.66 20 -3 20 C-3.98248524 15.9472484 -4.08159574 12.16138263 -4 8 C-3.01 7.67 -2.02 7.34 -1 7 C-0.67 4.69 -0.34 2.38 0 0 Z " fill="#323132" transform="translate(434,207)"/>
<path d="M0 0 C1.9375 1.5 1.9375 1.5 2.75 5 C2.9375 8.5 2.9375 8.5 1.9375 10.5 C0.9475 10.17 -0.0425 9.84 -1.0625 9.5 C-2.01171875 7.43359375 -2.01171875 7.43359375 -2.75 4.9375 C-3.00136719 4.11121094 -3.25273437 3.28492188 -3.51171875 2.43359375 C-3.69347656 1.79550781 -3.87523437 1.15742188 -4.0625 0.5 C-2.0625 -0.5 -2.0625 -0.5 0 0 Z " fill="#404040" transform="translate(306.0625,413.5)"/>
<path d="M0 0 C1.21405922 3.49551279 0.777272 5.69093297 -0.3125 9.1875 C-0.57675781 10.06792969 -0.84101563 10.94835937 -1.11328125 11.85546875 C-2 14 -2 14 -4 15 C-4.65772428 18.02934491 -4.65772428 18.02934491 -5 21 C-5.33 21 -5.66 21 -6 21 C-6.4971375 13.21151252 -4.39172381 6.48302086 0 0 Z " fill="#E7946F" transform="translate(310,142)"/>
<path d="M0 0 C1.875 0.25 1.875 0.25 4 1 C5.72101535 3.58152302 6 4.84918025 6 8 C0.25 7.125 0.25 7.125 -2 6 C-2 4.68 -2 3.36 -2 2 C-1.34 2 -0.68 2 0 2 C0 1.34 0 0.68 0 0 Z " fill="#171717" transform="translate(375,111)"/>
<path d="M0 0 C4.51478398 0.53115106 7.34666857 2.36620292 11 5 C10.34 5.66 9.68 6.32 9 7 C8.01 6.67 7.02 6.34 6 6 C4.33034549 6.31802943 2.66321482 6.64984951 1 7 C0 6 0 6 -0.0625 2.9375 C-0.041875 1.968125 -0.02125 0.99875 0 0 Z " fill="#161616" transform="translate(342,87)"/>
<path d="M0 0 C1.3303125 0.4021875 1.3303125 0.4021875 2.6875 0.8125 C2.6875 3.1225 2.6875 5.4325 2.6875 7.8125 C2.0275 6.4925 1.3675 5.1725 0.6875 3.8125 C-0.3025 5.2975 -0.3025 5.2975 -1.3125 6.8125 C-1.3125 5.8225 -1.3125 4.8325 -1.3125 3.8125 C-2.3025 3.8125 -3.2925 3.8125 -4.3125 3.8125 C-4.6425 4.8025 -4.9725 5.7925 -5.3125 6.8125 C-6.3025 6.1525 -7.2925 5.4925 -8.3125 4.8125 C-4.12788462 -0.23365385 -4.12788462 -0.23365385 0 0 Z " fill="#4C4C4C" transform="translate(214.3125,412.1875)"/>
<path d="M0 0 C-0.11347619 1.97986082 -0.2410935 3.95891598 -0.375 5.9375 C-0.44460938 7.03964844 -0.51421875 8.14179688 -0.5859375 9.27734375 C-0.72257812 10.17582031 -0.85921875 11.07429688 -1 12 C-1.99 12.495 -1.99 12.495 -3 13 C-3.84454356 9.62182575 -4.10844919 7.32534757 -3 4 C-3.99 4 -4.98 4 -6 4 C-6.33 4.99 -6.66 5.98 -7 7 C-8 4 -8 4 -7 1 C-4.52260646 0.09162237 -2.66420516 0 0 0 Z " fill="#0F0C0E" transform="translate(439,262)"/>
<path d="M0 0 C1 3 1 3 0.5 5.125 C-1 7 -1 7 -4.625 7.75 C-5.73875 7.8325 -6.8525 7.915 -8 8 C-7.67 6.02 -7.34 4.04 -7 2 C-2.25 0.875 -2.25 0.875 0 2 C0 1.34 0 0.68 0 0 Z " fill="#161515" transform="translate(420,326)"/>
<path d="M0 0 C1.32 0.33 2.64 0.66 4 1 C4 3.97 4 6.94 4 10 C2.68 10.33 1.36 10.66 0 11 C0 7.37 0 3.74 0 0 Z " fill="#353535" transform="translate(251,420)"/>
<path d="M0 0 C2.44647162 2.53083271 3 3.4252927 3 7 C2.01 7 1.02 7 0 7 C-0.33 5.68 -0.66 4.36 -1 3 C-2.65 2.67 -4.3 2.34 -6 2 C-6.33 2.66 -6.66 3.32 -7 4 C-7 2.68 -7 1.36 -7 0 C-4.24438552 -1.37780724 -2.90228766 -0.92023755 0 0 Z " fill="#424242" transform="translate(297,415)"/>
<path d="M0 0 C0.53625 0.268125 1.0725 0.53625 1.625 0.8125 C1.625 1.4725 1.625 2.1325 1.625 2.8125 C0.09375 4.1015625 0.09375 4.1015625 -1.875 5.4375 C-2.5246875 5.88351562 -3.174375 6.32953125 -3.84375 6.7890625 C-4.60171875 7.29566406 -4.60171875 7.29566406 -5.375 7.8125 C-6.365 6.8225 -7.355 5.8325 -8.375 4.8125 C-2.95961538 -0.23365385 -2.95961538 -0.23365385 0 0 Z " fill="#242424" transform="translate(163.375,379.1875)"/>
<path d="M0 0 C0.33 0 0.66 0 1 0 C0.67 2.64 0.34 5.28 0 8 C-1.65 8.33 -3.3 8.66 -5 9 C-5.33 6.69 -5.66 4.38 -6 2 C-4.7934375 1.7834375 -4.7934375 1.7834375 -3.5625 1.5625 C-1.07896294 1.25864751 -1.07896294 1.25864751 0 0 Z " fill="#2A292A" transform="translate(83,275)"/>
<path d="M0 0 C5.95118223 -0.49593185 10.00890885 0.6726059 15 4 C17 6.25 17 6.25 18 8 C17.01 8 16.02 8 15 8 C15 7.34 15 6.68 15 6 C12.03 5.505 12.03 5.505 9 5 C9 4.34 9 3.68 9 3 C5.7 2.67 2.4 2.34 -1 2 C-0.67 1.34 -0.34 0.68 0 0 Z " fill="#E18A64" transform="translate(322,130)"/>
<path d="M0 0 C1.2065625 0.0309375 1.2065625 0.0309375 2.4375 0.0625 C2.7675 1.0525 3.0975 2.0425 3.4375 3.0625 C2.2309375 3.495625 2.2309375 3.495625 1 3.9375 C-1.6951468 4.79512568 -1.6951468 4.79512568 -2.5625 7.0625 C-3.8825 6.7325 -5.2025 6.4025 -6.5625 6.0625 C-3.03077411 0.07392132 -3.03077411 0.07392132 0 0 Z " fill="#1B1B1B" transform="translate(197.5625,407.9375)"/>
<path d="M0 0 C0.66 0.33 1.32 0.66 2 1 C1.67 2.98 1.34 4.96 1 7 C0.34 7 -0.32 7 -1 7 C-1.33 7.66 -1.66 8.32 -2 9 C-5 4.25 -5 4.25 -5 2 C-2.625 0.9375 -2.625 0.9375 0 0 Z " fill="#1A1A1A" transform="translate(105,338)"/>
<path d="M0 0 C0.66 0 1.32 0 2 0 C2.33 0.66 2.66 1.32 3 2 C3.99 2 4.98 2 6 2 C6.66 1.34 7.32 0.68 8 0 C8.33 2.31 8.66 4.62 9 7 C6.03 6.505 6.03 6.505 3 6 C2.67 6.66 2.34 7.32 2 8 C1.34 5.36 0.68 2.72 0 0 Z " fill="#3B3A3A" transform="translate(425,198)"/>
<path d="M0 0 C0.33 0 0.66 0 1 0 C1.33 3.3 1.66 6.6 2 10 C2.33 8.68 2.66 7.36 3 6 C3.99 5.34 4.98 4.68 6 4 C6.33 5.98 6.66 7.96 7 10 C4 12 4 12 0 12 C0 8.04 0 4.08 0 0 Z " fill="#444243" transform="translate(432,251)"/>
<path d="M0 0 C1.98 0 3.96 0 6 0 C6 3.3 6 6.6 6 10 C4.68 10 3.36 10 2 10 C2 7.36 2 4.72 2 2 C2.99 1.67 3.98 1.34 5 1 C3.35 1 1.7 1 0 1 C0 0.67 0 0.34 0 0 Z " fill="#3E3E3E" transform="translate(183,404)"/>
<path d="M0 0 C1.65 1.65 3.3 3.3 5 5 C3.02 6.32 1.04 7.64 -1 9 C-2.32 7.35 -3.64 5.7 -5 4 C-2.525 4.495 -2.525 4.495 0 5 C-0.33 4.01 -0.66 3.02 -1 2 C-0.67 1.34 -0.34 0.68 0 0 Z " fill="#4A4A4A" transform="translate(381,114)"/>
<path d="M0 0 C0.99 0.66 1.98 1.32 3 2 C2.071875 3.1446875 2.071875 3.1446875 1.125 4.3125 C-1.05597052 6.99625809 -1.05597052 6.99625809 -3 10 C-3.12375 9.360625 -3.2475 8.72125 -3.375 8.0625 C-3.684375 7.0415625 -3.684375 7.0415625 -4 6 C-4.66 5.67 -5.32 5.34 -6 5 C-5.34 5 -4.68 5 -4 5 C-3.67 4.01 -3.34 3.02 -3 2 C-2.01 1.34 -1.02 0.68 0 0 Z " fill="#161616" transform="translate(167,88)"/>
<path d="M0 0 C0.99 1.485 0.99 1.485 2 3 C2.99 2.67 3.98 2.34 5 2 C5 4.31 5 6.62 5 9 C3.35 9.66 1.7 10.32 0 11 C0 7.37 0 3.74 0 0 Z " fill="#4B494A" transform="translate(432,235)"/>
<path d="M0 0 C0.99 0.33 1.98 0.66 3 1 C2.32829194 4.8063457 1.27253436 8.35206816 0 12 C-0.309375 11.360625 -0.61875 10.72125 -0.9375 10.0625 C-1.8345163 8.06389179 -1.8345163 8.06389179 -3 7 C-1.125 2.25 -1.125 2.25 0 0 Z " fill="#302F2F" transform="translate(284,190)"/>
<path d="M0 0 C0.66 0 1.32 0 2 0 C2.25 6.625 2.25 6.625 0 10 C-0.66 9.67 -1.32 9.34 -2 9 C-2.25 3.375 -2.25 3.375 0 0 Z " fill="#232323" transform="translate(204,399)"/>
<path d="M0 0 C0.33 0.66 0.66 1.32 1 2 C1.66 2 2.32 2 3 2 C3 1.34 3 0.68 3 0 C7.455 0.99 7.455 0.99 12 2 C12 2.66 12 3.32 12 4 C10.37509046 4.02698189 8.75005367 4.04638757 7.125 4.0625 C5.76761719 4.07990234 5.76761719 4.07990234 4.3828125 4.09765625 C2 4 2 4 0 3 C0 2.01 0 1.02 0 0 Z " fill="#525252" transform="translate(149,393)"/>
<path d="M0 0 C2.475 0.99 2.475 0.99 5 2 C5 2.99 5 3.98 5 5 C1.71303767 5.79953138 0.28976808 6.09658936 -3 5 C-2.01 3.35 -1.02 1.7 0 0 Z " fill="#2E2D2E" transform="translate(416,322)"/>
<path d="M0 0 C2 2 2 2 2.22705078 4.15478516 C2.21657715 5.02409668 2.20610352 5.8934082 2.1953125 6.7890625 C2.18886719 7.73007813 2.18242187 8.67109375 2.17578125 9.640625 C2.15902344 10.62546875 2.14226562 11.6103125 2.125 12.625 C2.11597656 13.61757812 2.10695313 14.61015625 2.09765625 15.6328125 C2.07404116 18.08878134 2.04110799 20.54427168 2 23 C1.67 23 1.34 23 1 23 C0.93941406 21.89140625 0.87882812 20.7828125 0.81640625 19.640625 C0.73197049 18.1770718 0.64732401 16.71353075 0.5625 15.25 C0.52318359 14.52039063 0.48386719 13.79078125 0.44335938 13.0390625 C0.22752922 8.94668231 0.22752922 8.94668231 -0.58227539 4.94433594 C-1 3 -1 3 0 0 Z " fill="#0C0A0B" transform="translate(437,237)"/>
<path d="M0 0 C0.66 0 1.32 0 2 0 C2 0.66 2 1.32 2 2 C2.66 2 3.32 2 4 2 C4.94983783 5.69381378 5.06402988 8.32426043 4 12 C3.01 13.485 3.01 13.485 2 15 C1.34 10.05 0.68 5.1 0 0 Z " fill="#121011" transform="translate(431,227)"/>
<path d="M0 0 C2.31 0 4.62 0 7 0 C7.33 0.66 7.66 1.32 8 2 C10.3140622 2.73075648 12.64828869 3.40138258 15 4 C15 3.34 15 2.68 15 2 C15.66 2 16.32 2 17 2 C16.67 2.99 16.34 3.98 16 5 C13.3125 5.75 13.3125 5.75 10 6 C7.4375 4.125 7.4375 4.125 5 2 C2.31492671 1.21053391 2.31492671 1.21053391 0 1 C0 0.67 0 0.34 0 0 Z " fill="#E7A182" transform="translate(299,217)"/>
<path d="M0 0 C3 3.75 3 3.75 3 6 C3.66 6.66 4.32 7.32 5 8 C4.34 8 3.68 8 3 8 C2.67 9.65 2.34 11.3 2 13 C1.67 13 1.34 13 1 13 C0.63901937 11.02206479 0.28638652 9.04260427 -0.0625 7.0625 C-0.25972656 5.96035156 -0.45695312 4.85820312 -0.66015625 3.72265625 C-0.77230469 2.82417969 -0.88445312 1.92570312 -1 1 C-0.67 0.67 -0.34 0.34 0 0 Z " fill="#3B3A3A" transform="translate(273,295)"/>
<path d="M0 0 C0.33 0.99 0.66 1.98 1 3 C1.66 3 2.32 3 3 3 C3.33 2.01 3.66 1.02 4 0 C5.60031344 3.20062687 4.03173691 5.72271806 3 9 C2.54625 8.505 2.0925 8.01 1.625 7.5 C0.12364481 5.77390663 0.12364481 5.77390663 -2 6 C-2 4.68 -2 3.36 -2 2 C-1.34 2 -0.68 2 0 2 C0 1.34 0 0.68 0 0 Z " fill="#100F10" transform="translate(81,206)"/>
<path d="M0 0 C3.71599191 -0.20086443 4.77208445 -0.1519437 8 2 C8.66 2.66 9.32 3.32 10 4 C4.58461538 5.23076923 4.58461538 5.23076923 1.625 4.0625 C1.08875 3.711875 0.5525 3.36125 0 3 C0 2.01 0 1.02 0 0 Z " fill="#4B4B4B" transform="translate(192,415)"/>
<path d="M0 0 C1.32 0 2.64 0 4 0 C4.99 1.98 5.98 3.96 7 6 C6.01 6 5.02 6 4 6 C3.67 6.66 3.34 7.32 3 8 C0 2.25 0 2.25 0 0 Z " fill="#3B3B3B" transform="translate(319,398)"/>
<path d="M0 0 C0.89130413 2.6739124 1.47731534 5.23723823 2 8 C1.01 8.33 0.02 8.66 -1 9 C-1.99 7.68 -2.98 6.36 -4 5 C-2.25 1.125 -2.25 1.125 0 0 Z " fill="#313131" transform="translate(162,91)"/>
<path d="M0 0 C1.07094862 2.06416709 1.96549624 3.85335902 2.5 6.125 C2.89277065 8.22679483 2.89277065 8.22679483 5 10 C3.125 10.625 3.125 10.625 1 11 C0.34 10.34 -0.32 9.68 -1 9 C-0.9765625 6.8359375 -0.9765625 6.8359375 -0.625 4.375 C-0.51414063 3.55773437 -0.40328125 2.74046875 -0.2890625 1.8984375 C-0.19367188 1.27195312 -0.09828125 0.64546875 0 0 Z " fill="#575757" transform="translate(220,417)"/>
<path d="M0 0 C0.625 1.8125 0.625 1.8125 1 4 C0.01 5.485 0.01 5.485 -1 7 C-1.33 7.66 -1.66 8.32 -2 9 C-3.5625 6.6875 -3.5625 6.6875 -5 4 C-4.67 3.01 -4.34 2.02 -4 1 C-1.9375 0.3125 -1.9375 0.3125 0 0 Z " fill="#1A1A1A" transform="translate(93,315)"/>
<path d="M0 0 C1.43088528 2.86177057 0.59991697 4.93375773 0 8 C-1.32 8 -2.64 8 -4 8 C-4.625 6.1875 -4.625 6.1875 -5 4 C-3 1 -3 1 0 0 Z " fill="#242223" transform="translate(436,265)"/>
<path d="M0 0 C1.90318884 2.85478326 2.4619099 4.41941308 3.125 7.6875 C3.29257812 8.49574219 3.46015625 9.30398437 3.6328125 10.13671875 C3.75398438 10.75160156 3.87515625 11.36648437 4 12 C3.01 11.67 2.02 11.34 1 11 C1 9.68 1 8.36 1 7 C0.34 7 -0.32 7 -1 7 C-1.04254356 5.00045254 -1.04080783 2.99958364 -1 1 C-0.67 0.67 -0.34 0.34 0 0 Z " fill="#343333" transform="translate(428,186)"/>
<path d="M0 0 C2.0625 0.4375 2.0625 0.4375 4 1 C4.33 2.65 4.66 4.3 5 6 C3.35 6 1.7 6 0 6 C-0.38218767 4.34385343 -0.71395102 2.67542976 -1 1 C-0.67 0.67 -0.34 0.34 0 0 Z " fill="#1E1D1D" transform="translate(419,175)"/>
<path d="M0 0 C1.423125 0.37125 1.423125 0.37125 2.875 0.75 C3.205 1.41 3.535 2.07 3.875 2.75 C3.215 3.41 2.555 4.07 1.875 4.75 C-0.765 3.76 -3.405 2.77 -6.125 1.75 C-3.125 -0.25 -3.125 -0.25 0 0 Z " fill="#3C3C3C" transform="translate(171.125,391.25)"/>
<path d="M0 0 C3.14737182 0.69941596 6.02588876 1.76078698 9 3 C7 5 7 5 4.5 5.25 C2 5 2 5 0 3 C0 2.01 0 1.02 0 0 Z " fill="#333333" transform="translate(149,383)"/>
<path d="M0 0 C0.86625 0.556875 0.86625 0.556875 1.75 1.125 C-1.25 2.125 -1.25 2.125 -3.25 2.125 C-3.25 6.085 -3.25 10.045 -3.25 14.125 C-3.58 14.125 -3.91 14.125 -4.25 14.125 C-4.25 10.825 -4.25 7.525 -4.25 4.125 C-4.91 3.795 -5.57 3.465 -6.25 3.125 C-6.25 2.465 -6.25 1.805 -6.25 1.125 C-2.80384615 -1.09038462 -2.80384615 -1.09038462 0 0 Z " fill="#3F3D3D" transform="translate(257.25,274.875)"/>
<path d="M0 0 C2 2 2 2 2 4 C3.32 4.66 4.64 5.32 6 6 C3.03 6.66 0.06 7.32 -3 8 C-2.45276317 4.62537285 -1.9451 2.91765 0 0 Z " fill="#434242" transform="translate(190,78)"/>
<path d="M0 0 C0.33 0 0.66 0 1 0 C1 6.6 1 13.2 1 20 C-1 16 -1 16 -2 13 C-1.67 12.34 -1.34 11.68 -1 11 C-0.7724985 9.12943209 -0.59037189 7.25314042 -0.4375 5.375 C-0.35371094 4.37210937 -0.26992187 3.36921875 -0.18359375 2.3359375 C-0.12300781 1.56507813 -0.06242188 0.79421875 0 0 Z " fill="#615F60" transform="translate(222,303)"/>
<path d="M0 0 C2.11762004 1.72948483 2.93104272 2.71445209 3.58203125 5.41015625 C3.65808594 6.28542969 3.73414063 7.16070312 3.8125 8.0625 C3.90144531 8.94035156 3.99039062 9.81820312 4.08203125 10.72265625 C4 13 4 13 2 15 C1.93941406 14.33613281 1.87882812 13.67226562 1.81640625 12.98828125 C1.20136493 6.45091919 1.20136493 6.45091919 0 0 Z " fill="#DFA68E" transform="translate(344,145)"/>
<path d="M0 0 C1.32 0 2.64 0 4 0 C4 0.66 4 1.32 4 2 C4.99 2.33 5.98 2.66 7 3 C6.67 3.99 6.34 4.98 6 6 C4.68 6 3.36 6 2 6 C1.34 5.34 0.68 4.68 0 4 C0 2.68 0 1.36 0 0 Z " fill="#1F1D1D" transform="translate(353,94)"/>
<path d="M0 0 C1.65 0 3.3 0 5 0 C5.33 1.65 5.66 3.3 6 5 C5.01 5.66 4.02 6.32 3 7 C0.64046906 4.64046906 0.50858587 3.22104383 0 0 Z " fill="#646464" transform="translate(287,421)"/>
<path d="M0 0 C1.65 0.33 3.3 0.66 5 1 C4.67 2.32 4.34 3.64 4 5 C3.34 5 2.68 5 2 5 C1.67 5.99 1.34 6.98 1 8 C1 7.01 1 6.02 1 5 C0.34 5 -0.32 5 -1 5 C-0.67 3.35 -0.34 1.7 0 0 Z " fill="#141414" transform="translate(288,416)"/>
<path d="M0 0 C0.99 0.33 1.98 0.66 3 1 C2.75 2.875 2.75 2.875 2 5 C-0.0625 6.25 -0.0625 6.25 -2 7 C-2.125 4.625 -2.125 4.625 -2 2 C-1.34 1.34 -0.68 0.68 0 0 Z " fill="#121212" transform="translate(85,297)"/>
<path d="M0 0 C0.33 0 0.66 0 1 0 C1.38289206 9.76374745 1.38289206 9.76374745 -1 14 C-1.99 14.495 -1.99 14.495 -3 15 C-2.22225866 9.94468132 -1.14051606 4.98283716 0 0 Z " fill="#E48F72" transform="translate(303,190)"/>
<path d="M0 0 C0.33 0.66 0.66 1.32 1 2 C1.66 2 2.32 2 3 2 C2.67 4.31 2.34 6.62 2 9 C0.68 7.68 -0.64 6.36 -2 5 C-1.34 3.35 -0.68 1.7 0 0 Z " fill="#161616" transform="translate(342,397)"/>
<path d="M0 0 C-2.3125 2.0625 -2.3125 2.0625 -5 4 C-5.99 3.67 -6.98 3.34 -8 3 C-8.33 4.65 -8.66 6.3 -9 8 C-9.75 6.25 -9.75 6.25 -10 4 C-7.14593539 -0.10985304 -4.8398506 -0.43998642 0 0 Z " fill="#525252" transform="translate(171,397)"/>
<path d="M0 0 C0.33 0.99 0.66 1.98 1 3 C1.66 3.33 2.32 3.66 3 4 C2.01 6.64 1.02 9.28 0 12 C-0.33 12 -0.66 12 -1 12 C-1.02687279 10.18757948 -1.04633715 8.37504767 -1.0625 6.5625 C-1.07410156 5.55316406 -1.08570313 4.54382813 -1.09765625 3.50390625 C-1 1 -1 1 0 0 Z " fill="#E66E3F" transform="translate(306,156)"/>
<path d="M0 0 C0.33 0.99 0.66 1.98 1 3 C-3.455 5.97 -3.455 5.97 -8 9 C-8 8.01 -8 7.02 -8 6 C-6.25 4.39453125 -6.25 4.39453125 -4 2.8125 C-3.2575 2.28269531 -2.515 1.75289063 -1.75 1.20703125 C-1.1725 0.80871094 -0.595 0.41039063 0 0 Z " fill="#343434" transform="translate(149,100)"/>
<path d="M0 0 C0.66 0 1.32 0 2 0 C2.0825 1.11375 2.165 2.2275 2.25 3.375 C2.57873787 7.05753944 2.57873787 7.05753944 5.0625 8.4375 C5.701875 8.623125 6.34125 8.80875 7 9 C5.00045254 9.04254356 2.99958364 9.04080783 1 9 C0 8 0 8 -0.09765625 6.15234375 C-0.06510417 4.1015625 -0.03255208 2.05078125 0 0 Z " fill="#0E0E0E" transform="translate(328,399)"/>
<path d="M0 0 C1.32 0.66 2.64 1.32 4 2 C4 2.66 4 3.32 4 4 C3.34 4 2.68 4 2 4 C2 4.66 2 5.32 2 6 C0.68 6.33 -0.64 6.66 -2 7 C-1.125 2.25 -1.125 2.25 0 0 Z " fill="#161515" transform="translate(432,271)"/>
<path d="M0 0 C0.33 0 0.66 0 1 0 C1 2.31 1 4.62 1 7 C-0.65 7.33 -2.3 7.66 -4 8 C-3.67 6.68 -3.34 5.36 -3 4 C-2.34 4 -1.68 4 -1 4 C-0.67 2.68 -0.34 1.36 0 0 Z " fill="#151515" transform="translate(215,415)"/>
<path d="M0 0 C1.98 0 3.96 0 6 0 C6 0.99 6 1.98 6 3 C4.02 3.33 2.04 3.66 0 4 C-0.33 3.34 -0.66 2.68 -1 2 C-0.67 1.34 -0.34 0.68 0 0 Z " fill="#2E2E2E" transform="translate(300,409)"/>
<path d="M0 0 C1.65 0 3.3 0 5 0 C5.625 2.3125 5.625 2.3125 6 5 C5.01 6.485 5.01 6.485 4 8 C2.68 5.36 1.36 2.72 0 0 Z " fill="#302B2C" transform="translate(273,211)"/>
<path d="M0 0 C0.66 0.66 1.32 1.32 2 2 C1.67 2.99 1.34 3.98 1 5 C-0.65 5.33 -2.3 5.66 -4 6 C-3.67 4.35 -3.34 2.7 -3 1 C-2.01 0.67 -1.02 0.34 0 0 Z " fill="#333333" transform="translate(90,178)"/>
<path d="M0 0 C2.2477975 2.05233685 3.0022242 3.00667261 4 6 C-0.455 5.01 -0.455 5.01 -5 4 C-2 1 -2 1 0 0 Z " fill="#0F0E0E" transform="translate(179,82)"/>
<path d="M0 0 C0.66 0.66 1.32 1.32 2 2 C0.71937515 3.7074998 -0.61767557 5.37373596 -2 7 C-2.66 7 -3.32 7 -4 7 C-4 5.68 -4 4.36 -4 3 C-2 1.25 -2 1.25 0 0 Z " fill="#444444" transform="translate(282,422)"/>
<path d="M0 0 C1.65 0 3.3 0 5 0 C4.34 1.32 3.68 2.64 3 4 C1.35 4 -0.3 4 -2 4 C-1.34 2.68 -0.68 1.36 0 0 Z " fill="#272727" transform="translate(316,408)"/>
<path d="M0 0 C0.93972656 0.23396484 0.93972656 0.23396484 1.8984375 0.47265625 C3.12433594 0.76462891 3.12433594 0.76462891 4.375 1.0625 C5.59316406 1.35833984 5.59316406 1.35833984 6.8359375 1.66015625 C9.04161284 2.22109319 9.04161284 2.22109319 11 1 C11 1.99 11 2.98 11 4 C10.01 4.33 9.02 4.66 8 5 C7.01 4.34 6.02 3.68 5 3 C2.37468476 2.83286431 2.37468476 2.83286431 0 3 C0 2.01 0 1.02 0 0 Z " fill="#070707" transform="translate(164,393)"/>
<path d="M0 0 C0.66 0.33 1.32 0.66 2 1 C2.1875 4.375 2.1875 4.375 2 8 C1.01 8.66 0.02 9.32 -1 10 C-1.02689216 8.52093108 -1.04634621 7.04172517 -1.0625 5.5625 C-1.07410156 4.73878906 -1.08570313 3.91507813 -1.09765625 3.06640625 C-1 1 -1 1 0 0 Z " fill="#535353" transform="translate(229,218)"/>
<path d="M0 0 C0.33 0.99 0.66 1.98 1 3 C1.99 3 2.98 3 4 3 C4 3.99 4 4.98 4 6 C2.35 6 0.7 6 -1 6 C-1.042721 4.33388095 -1.04063832 2.66617115 -1 1 C-0.67 0.67 -0.34 0.34 0 0 Z " fill="#262626" transform="translate(274,423)"/>
<path d="M0 0 C0.66 0 1.32 0 2 0 C1.25 4.75 1.25 4.75 -1 7 C-2.32 6.01 -3.64 5.02 -5 4 C-4.360625 3.71125 -3.72125 3.4225 -3.0625 3.125 C-0.84793921 2.17176549 -0.84793921 2.17176549 0 0 Z " fill="#656565" transform="translate(321,412)"/>
<path d="M0 0 C-0.99 0.495 -0.99 0.495 -2 1 C-2 1.66 -2 2.32 -2 3 C-3.32 2.67 -4.64 2.34 -6 2 C-6.33 2.66 -6.66 3.32 -7 4 C-7 2.68 -7 1.36 -7 0 C-4.3333581 -1.33332095 -2.83319697 -0.67102033 0 0 Z " fill="#545454" transform="translate(297,415)"/>
<path d="M0 0 C0.99 0.66 1.98 1.32 3 2 C0.6875 4.5 0.6875 4.5 -2 7 C-2.99 7 -3.98 7 -5 7 C-3.35 4.69 -1.7 2.38 0 0 Z " fill="#2A2A2A" transform="translate(390,361)"/>
<path d="M0 0 C0.99 0 1.98 0 3 0 C3 2.31 3 4.62 3 7 C1.68 7.33 0.36 7.66 -1 8 C-0.67 5.36 -0.34 2.72 0 0 Z " fill="#2E2E2E" transform="translate(84,186)"/>
<path d="M0 0 C1.65 0.33 3.3 0.66 5 1 C5 1.99 5 2.98 5 4 C3.02 4 1.04 4 -1 4 C-0.67 2.68 -0.34 1.36 0 0 Z " fill="#2C2C2C" transform="translate(250,414)"/>
<path d="M0 0 C0.99 0.33 1.98 0.66 3 1 C2.01 1.33 1.02 1.66 0 2 C-0.33 3.65 -0.66 5.3 -1 7 C-1.66 7 -2.32 7 -3 7 C-3.1875 4.625 -3.1875 4.625 -3 2 C-2.01 1.34 -1.02 0.68 0 0 Z " fill="#3B3B3B" transform="translate(224,414)"/>
<path d="M0 0 C0.99 0.66 1.98 1.32 3 2 C2.67 2.99 2.34 3.98 2 5 C1.34 5 0.68 5 0 5 C0 5.66 0 6.32 0 7 C-0.66 7 -1.32 7 -2 7 C-1.125 2.25 -1.125 2.25 0 0 Z " fill="#222222" transform="translate(152,388)"/>
<path d="M0 0 C0.66 1.32 1.32 2.64 2 4 C1.01 4.33 0.02 4.66 -1 5 C-1.70211894 6.65204456 -2.36971413 8.31923769 -3 10 C-3.99 10.495 -3.99 10.495 -5 11 C-3.55049545 7.2089881 -1.84827434 3.6125362 0 0 Z " fill="#303030" transform="translate(411,331)"/>
<path d="M0 0 C0.33 0.66 0.66 1.32 1 2 C2.98 1.34 4.96 0.68 7 0 C6.34 1.65 5.68 3.3 5 5 C3.02 4.34 1.04 3.68 -1 3 C-0.67 2.01 -0.34 1.02 0 0 Z " fill="#121011" transform="translate(418,320)"/>
<path d="M0 0 C0.99 0 1.98 0 3 0 C3 1.65 3 3.3 3 5 C1.68 5.33 0.36 5.66 -1 6 C-1.042721 4.33388095 -1.04063832 2.66617115 -1 1 C-0.67 0.67 -0.34 0.34 0 0 Z " fill="#242424" transform="translate(92,176)"/>
<path d="M0 0 C1.98 0.99 1.98 0.99 4 2 C3.67 3.32 3.34 4.64 3 6 C2.01 6 1.02 6 0 6 C0 4.02 0 2.04 0 0 Z " fill="#4E4E4E" transform="translate(235,425)"/>
<path d="M0 0 C1.32 0 2.64 0 4 0 C3.6875 1.875 3.6875 1.875 3 4 C2.01 4.66 1.02 5.32 0 6 C0 4.02 0 2.04 0 0 Z " fill="#0F0F0F" transform="translate(357,385)"/>
<path d="M0 0 C1.32 1.65 2.64 3.3 4 5 C3.01 5.66 2.02 6.32 1 7 C-0.32 5.35 -1.64 3.7 -3 2 C-2.01 1.34 -1.02 0.68 0 0 Z " fill="#2C2C2C" transform="translate(118,355)"/>
<path d="M0 0 C-0.33 0.99 -0.66 1.98 -1 3 C-1.66 3 -2.32 3 -3 3 C-3 3.66 -3 4.32 -3 5 C-3.99 5 -4.98 5 -6 5 C-5.625 3.0625 -5.625 3.0625 -5 1 C-3 0 -3 0 0 0 Z " fill="#121011" transform="translate(118,354)"/>
<path d="M0 0 C0 0.66 0 1.32 0 2 C-0.99 2.495 -0.99 2.495 -2 3 C-2.33 3.99 -2.66 4.98 -3 6 C-3.66 6 -4.32 6 -5 6 C-5.33 4.68 -5.66 3.36 -6 2 C-3 0 -3 0 0 0 Z " fill="#252224" transform="translate(414,155)"/>
<path d="M0 0 C0 0.99 0 1.98 0 3 C-1.98 3.66 -3.96 4.32 -6 5 C-5.6875 3.0625 -5.6875 3.0625 -5 1 C-2 0 -2 0 0 0 Z " fill="#2B2A2A" transform="translate(241,114)"/>
<path d="M0 0 C1.65 0 3.3 0 5 0 C4.67 1.65 4.34 3.3 4 5 C1 3 1 3 0 0 Z " fill="#4D4D4D" transform="translate(242,415)"/>
<path d="M0 0 C0.99 1.32 1.98 2.64 3 4 C1.02 4.99 1.02 4.99 -1 6 C-1.33 4.35 -1.66 2.7 -2 1 C-1.34 0.67 -0.68 0.34 0 0 Z " fill="#262626" transform="translate(203,367)"/>
<path d="M0 0 C0.99 0.99 1.98 1.98 3 3 C2.01 4.485 2.01 4.485 1 6 C-0.32 5.01 -1.64 4.02 -3 3 C-2.01 2.67 -1.02 2.34 0 2 C0 1.34 0 0.68 0 0 Z " fill="#343333" transform="translate(122,361)"/>
<path d="M0 0 C0.33 0.66 0.66 1.32 1 2 C1.66 2 2.32 2 3 2 C3 3.65 3 5.3 3 7 C2.67 6.34 2.34 5.68 2 5 C-0.02463255 4.34786708 -0.02463255 4.34786708 -2 4 C-1.34 2.68 -0.68 1.36 0 0 Z " fill="#211E1F" transform="translate(436,232)"/>
<path d="M0 0 C0.99 0.33 1.98 0.66 3 1 C2.34 4.63 1.68 8.26 1 12 C0.67 12 0.34 12 0 12 C0 8.04 0 4.08 0 0 Z " fill="#9B9B9B" transform="translate(228,148)"/>
<path d="M0 0 C1.32 0 2.64 0 4 0 C4 0.66 4 1.32 4 2 C2.02 2.99 0.04 3.98 -2 5 C-1.125 1.125 -1.125 1.125 0 0 Z " fill="#3A3A3A" transform="translate(167,93)"/>
<path d="M0 0 C0.99 0.33 1.98 0.66 3 1 C1.8125 2.5 1.8125 2.5 0 4 C-2.6875 4.1875 -2.6875 4.1875 -5 4 C-3.36587557 2.29159719 -2.13093906 1.06546953 0 0 Z " fill="#121011" transform="translate(187,79)"/>
</svg>
