<?xml version="1.0" encoding="UTF-8"?>
<svg id="Layer_1" data-name="Layer 1" xmlns="http://www.w3.org/2000/svg" viewBox="0 0 824.23 842.59">
  <defs>
    <style>
      .cls-1 {
        fill: #e74d25;
      }

      .cls-2 {
        font-family: Gluten-Light, Gluten;
        font-size: 61.44px;
        font-weight: 300;
      }
    </style>
  </defs>
  <g>
    <path class="cls-1" d="M533.44,314.71c-2.25,6.06-2.29,20.45-.35,27.22,2.26,9.5-1.88,19.78-11.78,21.82-12.62,2.6-6.14-11.06-23.39-11.28-17.36-.22-6.71-17.2-1.47-22.08,5.24-4.88,17.44-20.22,13.15-40.98-7.3-48.65,7.43-81.06,12.88-88.27l.02-.03c3.16-4.17,29.28-38.72,55.93-9.24,26.72,29.56,8.13,74.66-8.93,84.62-17.06,9.96-33.25,30.65-36.06,38.22Z"/>
    <path d="M212.47,410.98c-3.02,49.06-5.55,85.77-6.3,102.75,0,0,2.33,6.88-5.22,26.49-2.3,5.96-3.1,11.92-8.21,15.67-1.03.76-5.18,3.81-9.7,2.98-6.32-1.15-9.88-9.25-11.94-14.92-11.14-30.66-10.56-78.45-10.45-105.2.05-12.33-.04-8.17,0-24.67.19-72.26,5.27-107.62,9.33-123.44,1.17-4.56.87-9.87,5.63-17.12,1.88-2.86,7.66-11.66,17.75-13,13.34-1.77,23.12,11,24.41,12.68,2.76,3.6,4.04,6.89,4.44,7.93,13.42,35.09,17.93,71.67,22.71,110.67,0,0,4.74,47.04,5.27,55.67.03.54.46,2.45.67,2.9.47,1.02,1.69,1.46,2.96.67,1.58-.99,1.51-3.73,1.5-4.5-.38-37.86,6.77-75.51,6.94-113.36.03-5.98.09-.24,7.64-90.84,0,0,1.07-12.81,6.79-34.38,2.04-7.67,5.84-20.62,15.71-32.68,4.45-5.44,7.96-8.05,12.23-8.69,6.34-.95,11.86,2.83,15.26,5.16,5.94,4.07,9.23,8.98,10.8,11.5,10.24,16.46,12.24,35.53,12.24,35.53,4.95,47.32,3.55,61.97,3.55,61.97.75,32.93-3.67,163.98-4.34,248.69,1.37,10.24,1.7,33.54,2.37,80.13,0,0,.18,12.28-4.74,33.95-.53,2.33-3.22,13.68-11.45,24.08-2.89,3.65-5.47,5.94-8.88,6.32-5.67.64-10.45-4.35-11.2-5.14-1.84-1.92-2.7-3.73-3.88-6.25-2.95-6.28-3.69-11.78-3.88-13.15-2.16-15.79-3.25-23.69-3.31-25.71-.85-26.66-3-22.39-4.58-80.59-1.39-50.91-2.08-76.37-.38-85.17,2.64-13.71-.33-28.11,2.21-41.84,0,0,.97-5.25-1.35-9.8-.39-.77-1.33-2.56-2.65-2.59-1.06-.02-1.88,1.11-2.17,1.5-4.52,6.25-4.52,28.46-4.52,28.46,0,6.07-.5-.55-2.47,23.57-1.96,23.99-2.76,46.36-3.95,70.52-4.2,84.82-5.88,41.63-8.57,76.78,0,0-.75,9.85-8.24,24.39-1.53,2.97-3.38,6.09-6.86,7.25-4.34,1.45-9.33-.81-12.18-3.71-2.14-2.17-2.66-4.28-4.13-8.94-3.31-10.53-3.9-10.14-5.5-15.82-5.54-19.64-6.19-40.94-6.19-40.94-1.85-60.72-3.09-49.44-2.75-72.59.39-26.74-6.67-53.4-4.88-80.09.05-.76.31-3.75-1.14-4.54-1.26-.69-4.04-.98-4.39,1.45Z"/>
    <path d="M406.03,358.08c1.04-22.56-3.29-45.4,0-67.74,4.77-32.45-2.25-34.57-2.98-92.58,0,0-.07-5.79-6.37-35.18-.21-.96-.83-3.75-2.85-6.65-3.14-4.51-9.4-8.91-15.82-7.75-2.81.51-4.82,1.93-5.85,2.69,0,0-3.77,2.74-6.01,7.75-10.42,23.26-9.05,83.15-9.05,83.15.28,12.14-.26,24.3,0,36.44.12,5.71.07,55.42-.03,154.82-.05,52.54-.14,62.36-.08,97.72.22,126.05,1.31,37.18,4.21,119.11,0,.08.12,3.27.62,7.58,1.28,10.87,2.04,17.37,6.55,22.94.96,1.18,6.47,8,13.12,7.43,3.28-.28,6.94-2.37,8.6-3.32,1.05-.6,2.76-1.59,4.45-3.1,3.32-2.98,4.97-6.56,6-9.42,5.09-14.04,5.44-38.48,5.48-41.97.11-10.52,0-14.52,0-14.52.79-40.2,1.39-75.53-1.9-114.93-.54-6.51-1.09-13.8-1.09-23.52,0-2.21,1.95-4.03,3.99-5.3,3.88-2.41,8.74-.85,10.6-.25,15.16,4.87,25.94,38.36,26.58,40.42,1.46,4.67,5.22,17.33,7.87,41.23,2.29,20.66,2.51,38.56,2.71,55.07.2,15.87,3.85,31.6,3.8,47.47,0,2.26-.08,9.34,4.34,15.73,1.06,1.53,4.18,5.91,10.04,7.87,4.84,1.62,11.96,1.7,16.28-2.44,1.34-1.29,2.09-2.68,3.26-5.7,3.42-8.87,4.5-16.39,5.15-20.34,1.5-9.15,2.81-12.1,4.07-18.17,1.11-5.38,5.22-27.91,0-88.43-2.7-31.29-5.35-43.33-6.24-47.2-3.64-15.93-7.83-27.11-11.12-35.81-6.8-17.96-10.34-27.07-17.09-33.64-10.74-10.45-26.13-16.2-30.05-15.5-.23.04-1.1.22-1.81-.25-1.58-1.04-1.21-4.53-.24-8.44,7.18-28.86,29.36-82.86,29.36-82.86,4.82-11.73,8.39-21.62,11.07-29.03,6.43-17.8,9.75-27,12.79-38.16,0,0,11.29-41.44,5.13-75.46,0,0-1.56-8.61-8.38-19.08-.44-.68-1.23-1.84-2.68-2.81-5.05-3.38-12.09-.32-12.58-.1-5.32,2.41-7.8,7.24-10.53,12.78-2.9,5.88-3.98,10.82-4.12,11.45,0,0-29.56,139.58-39.73,163.69-.39.93-5.68,13.15-5.6,15.49,0,.11.03.6-.28.93-.62.67-2.37.45-3.13-.47-.52-.63-.47-1.45-.46-1.63Z"/>
    <path d="M643.13,388.67c4.63.05,8.13-2.52,9.74-3.71,2.75-2.02,4.6-4.46,6.03-6.96,7.61-13.31,7.88-30.37,7.88-30.37.15-9.65.42-26.6-10.66-43.59-4.09-6.27-12.72-19.49-29.44-24.34-19.36-5.61-36.14,3.88-40.34,6.26-28.81,16.3-33.29,51.76-34.55,61.67-1.36,10.72-3.62,28.63,6.26,45.91,9.48,16.57,26.61,26.4,29.91,28.29,7.81,4.48,10.7,4.44,19.01,10.2,6.73,4.66,14.55,10.21,20.4,20.4,2.06,3.58,7.46,13.27,6.49,25.74-.3,3.94-.69,8.26-3.71,12.52-6.13,8.67-17.26,8.81-18.08,8.81-1.37,0-11.31-.19-16.69-7.42-3.14-4.22-3.28-8.87-3.52-17.16-.18-6.38.74-8.06.25-15.66-.37-5.68-.59-8.57-2.39-11.34-2.47-3.81-6.97-6.58-11.94-6.92-6.43-.44-10.85,3.39-12.18,4.54-1.46,1.26-2.45,2.54-3.13,3.54-8.95,13.09-10.98,32.71-10.98,32.71-1.39,13.43-2.5,24.14,1.23,38,2.52,9.39,7.94,29.53,26.97,40.86,2.38,1.42,13.38,7.71,28.8,7.36,18.22-.41,30.63-9.82,34.94-13.49,8.85-7.52,13.07-15.95,14.92-19.72,2.87-5.86,3.92-10.3,5.9-18.88,1.8-7.78,4.64-20.44,4.74-37.46.05-8.8.1-16.5-2.39-26.61-1.33-5.38-3.13-12.44-7.97-20.39-7.55-12.41-17.65-19.04-21.99-21.83-4.9-3.14-10.04-5.61-15.3-8.13-7.05-3.38-11.15-4.85-17.21-8.92-4.46-3-6.69-4.5-8.6-7.17-4.89-6.83-4.07-14.9-3.69-18.64.46-4.49,1.61-15.75,10.22-20.55,1.76-.98,6.5-3.18,11.47-1.59,7.94,2.53,10.27,12.72,10.67,14.5.63,2.77.04,2.53.64,6.53.71,4.77,1.68,11.31,6.37,16.57,1.49,1.67,5.7,6.39,11.9,6.45Z"/>
  </g>
  <text class="cls-2" transform="translate(490.1 769.29) rotate(-14.75)"><tspan x="0" y="0">t</tspan></text>
  <text class="cls-2" transform="translate(520.05 761.48) rotate(-20.17)"><tspan x="0" y="0">a</tspan></text>
  <text class="cls-2" transform="translate(555.67 748.3) rotate(-26.28)"><tspan x="0" y="0">n</tspan></text>
  <text class="cls-2" transform="translate(591.22 730.51) rotate(-32.24)"><tspan x="0" y="0">d</tspan></text>
  <text class="cls-2" transform="translate(622.67 710.69) rotate(-38.54)"><tspan x="0" y="0">o</tspan></text>
  <text class="cls-2" transform="translate(656.4 683.59) rotate(-45.4)"><tspan x="0" y="0">o</tspan></text>
  <text class="cls-2" transform="translate(686.17 652.78) rotate(-51.28)"><tspan x="0" y="0">r</tspan></text>
  <text class="cls-2" transform="translate(704.77 629.2) rotate(-55.18)"><tspan x="0" y="0">i</tspan></text>
  <path d="M729.24,587.11c2.41,1.31,5.43.42,6.71-2.01,37.35-71,50.36-152.35,36.93-231.54-13.71-80.82-54.15-154.7-114.85-209.79-60.7-55.09-138.14-88.2-219.91-94.02-81.77-5.82-163.12,15.98-231.02,61.91-67.9,45.93-118.41,113.33-143.43,191.39-25.02,78.06-23.11,162.26,5.44,239.11,28.54,76.84,82.06,141.88,151.98,184.67,68.5,41.93,148.85,60.14,228.65,51.89,2.73-.28,4.68-2.75,4.36-5.48-.32-2.72-2.79-4.67-5.52-4.39-77.59,7.99-155.71-9.72-222.31-50.49-68.02-41.63-120.08-104.9-147.85-179.66-27.77-74.76-29.63-156.67-5.29-232.62,24.34-75.94,73.48-141.51,139.54-186.19,66.05-44.68,145.2-65.89,224.75-60.23,79.55,5.67,154.89,37.88,213.94,91.47,59.05,53.59,98.4,125.47,111.74,204.09,13.06,76.99.43,156.09-35.86,225.14-1.28,2.43-.39,5.44,2.02,6.75Z"/>
</svg>